Rosario-Regular Italic.ufo
<glyph name="exclam" format="1">
  <advance width="246"/>
  <unicode hex="0021"/>
  <outline>
    <contour>
      <point x="167" y="89"/>
      <point x="137" y="119"/>
      <point x="101" y="119" type="curve" smooth="yes"/>
      <point x="64" y="119"/>
      <point x="35" y="90"/>
      <point x="35" y="53" type="curve" smooth="yes"/>
      <point x="35" y="17"/>
      <point x="65" y="-13"/>
      <point x="101" y="-13" type="curve" smooth="yes"/>
      <point x="137" y="-13"/>
      <point x="167" y="17"/>
      <point x="167" y="53" type="curve" smooth="yes"/>
    </contour>
    <contour>
      <point x="244" y="667" type="line"/>
      <point x="244" y="667"/>
      <point x="245" y="674"/>
      <point x="245" y="677" type="curve" smooth="yes"/>
      <point x="245" y="708"/>
      <point x="215" y="725"/>
      <point x="186" y="725" type="curve" smooth="yes"/>
      <point x="159" y="725"/>
      <point x="134" y="708"/>
      <point x="132" y="683" type="curve" smooth="yes"/>
      <point x="95" y="216" type="line"/>
      <point x="153" y="207" type="line"/>
    </contour>
  </outline>
</glyph>
<glyph name="quotedbl" format="1">
  <advance width="300"/>
  <unicode hex="0022"/>
  <outline>
    <contour>
      <point x="314" y="724" type="line"/>
      <point x="234" y="724" type="line"/>
      <point x="209" y="550" type="line"/>
      <point x="218" y="436" type="line"/>
      <point x="246" y="436" type="line"/>
      <point x="289" y="548" type="line"/>
    </contour>
    <contour>
      <point x="175" y="724" type="line"/>
      <point x="95" y="724" type="line"/>
      <point x="70" y="550" type="line"/>
      <point x="79" y="436" type="line"/>
      <point x="107" y="436" type="line"/>
      <point x="150" y="548" type="line"/>
    </contour>
  </outline>
</glyph>
<glyph name="dollar" format="1">
  <advance width="399"/>
  <unicode hex="0024"/>
  <outline>
    <contour>
      <point x="373" y="466" type="line"/>
      <point x="346" y="484"/>
      <point x="316" y="496"/>
      <point x="285" y="500" type="curve"/>
      <point x="320" y="613" type="line"/>
      <point x="242" y="613" type="line"/>
      <point x="220" y="502" type="line"/>
      <point x="136" y="494"/>
      <point x="64" y="445"/>
      <point x="64" y="353" type="curve" smooth="yes"/>
      <point x="64" y="222"/>
      <point x="254" y="224"/>
      <point x="254" y="129" type="curve" smooth="yes"/>
      <point x="254" y="77"/>
      <point x="202" y="47"/>
      <point x="155" y="47" type="curve" smooth="yes"/>
      <point x="120" y="47"/>
      <point x="82" y="68"/>
      <point x="56" y="89" type="curve"/>
      <point x="12" y="25" type="line"/>
      <point x="46" y="7"/>
      <point x="81" y="-8"/>
      <point x="119" y="-13" type="curve"/>
      <point x="85" y="-124" type="line"/>
      <point x="163" y="-124" type="line"/>
      <point x="183" y="-14" type="line"/>
      <point x="267" y="-5"/>
      <point x="337" y="48"/>
      <point x="337" y="138" type="curve" smooth="yes"/>
      <point x="337" y="278"/>
      <point x="147" y="282"/>
      <point x="147" y="363" type="curve" smooth="yes"/>
      <point x="147" y="414"/>
      <point x="194" y="440"/>
      <point x="240" y="440" type="curve" smooth="yes"/>
      <point x="275" y="440"/>
      <point x="308" y="425"/>
      <point x="337" y="405" type="curve"/>
    </contour>
  </outline>
</glyph>
<glyph name="percent" format="1">
  <advance width="791"/>
  <unicode hex="0025"/>
  <outline>
    <contour>
      <point x="746" y="304"/>
      <point x="705" y="384"/>
      <point x="615" y="384" type="curve" smooth="yes"/>
      <point x="492" y="384"/>
      <point x="429" y="260"/>
      <point x="429" y="154" type="curve" smooth="yes"/>
      <point x="429" y="73"/>
      <point x="475" y="-5"/>
      <point x="566" y="-5" type="curve" smooth="yes"/>
      <point x="679" y="-5"/>
      <point x="746" y="130"/>
      <point x="746" y="226" type="curve" smooth="yes"/>
    </contour>
    <contour>
      <point x="644" y="709" type="line"/>
      <point x="230" y="709" type="line"/>
      <point x="107" y="709"/>
      <point x="45" y="586"/>
      <point x="45" y="481" type="curve" smooth="yes"/>
      <point x="45" y="400"/>
      <point x="91" y="322"/>
      <point x="182" y="322" type="curve" smooth="yes"/>
      <point x="295" y="322"/>
      <point x="361" y="458"/>
      <point x="361" y="553" type="curve" smooth="yes"/>
      <point x="361" y="587"/>
      <point x="353" y="623"/>
      <point x="334" y="653" type="curve"/>
      <point x="543" y="653" type="line"/>
      <point x="137" y="-13" type="line"/>
      <point x="205" y="-13" type="line"/>
    </contour>
    <contour>
      <point x="673" y="165"/>
      <point x="641" y="55"/>
      <point x="571" y="55" type="curve" smooth="yes"/>
      <point x="522" y="55"/>
      <point x="501" y="114"/>
      <point x="501" y="158" type="curve" smooth="yes"/>
      <point x="501" y="221"/>
      <point x="543" y="326"/>
      <point x="609" y="326" type="curve" smooth="yes"/>
      <point x="657" y="326"/>
      <point x="673" y="267"/>
      <point x="673" y="224" type="curve" smooth="yes"/>
    </contour>
    <contour>
      <point x="288" y="494"/>
      <point x="257" y="382"/>
      <point x="187" y="382" type="curve" smooth="yes"/>
      <point x="138" y="382"/>
      <point x="117" y="440"/>
      <point x="117" y="485" type="curve" smooth="yes"/>
      <point x="117" y="550"/>
      <point x="159" y="653"/>
      <point x="225" y="653" type="curve" smooth="yes"/>
      <point x="272" y="653"/>
      <point x="288" y="594"/>
      <point x="288" y="552" type="curve" smooth="yes"/>
    </contour>
  </outline>
</glyph>
<glyph name="ampersand" format="1">
  <advance width="659"/>
  <unicode hex="0026"/>
  <outline>
    <contour>
      <point x="593" y="303" type="line"/>
      <point x="592" y="280"/>
      <point x="573" y="270"/>
      <point x="553" y="270" type="curve"/>
      <point x="421" y="281" type="line"/>
      <point x="372" y="281"/>
      <point x="311" y="256"/>
      <point x="308" y="192" type="curve"/>
      <point x="369" y="192" type="line"/>
      <point x="371" y="205"/>
      <point x="384" y="228"/>
      <point x="411" y="228" type="curve" smooth="yes"/>
      <point x="443" y="228"/>
      <point x="457" y="210"/>
      <point x="457" y="187" type="curve" smooth="yes"/>
      <point x="457" y="145"/>
      <point x="370" y="61"/>
      <point x="256" y="61" type="curve" smooth="yes"/>
      <point x="179" y="61"/>
      <point x="129" y="108"/>
      <point x="129" y="186" type="curve" smooth="yes"/>
      <point x="129" y="234"/>
      <point x="149" y="301"/>
      <point x="193" y="350" type="curve"/>
      <point x="227" y="324"/>
      <point x="270" y="311"/>
      <point x="310" y="311" type="curve" smooth="yes"/>
      <point x="385" y="311"/>
      <point x="434" y="352"/>
      <point x="434" y="396" type="curve" smooth="yes"/>
      <point x="434" y="440"/>
      <point x="395" y="462"/>
      <point x="334" y="462" type="curve" smooth="yes"/>
      <point x="295" y="462"/>
      <point x="254" y="453"/>
      <point x="216" y="436" type="curve"/>
      <point x="213" y="446"/>
      <point x="212" y="454"/>
      <point x="212" y="459" type="curve" smooth="yes"/>
      <point x="212" y="561"/>
      <point x="285" y="630"/>
      <point x="397" y="630" type="curve" smooth="yes"/>
      <point x="449" y="630"/>
      <point x="487" y="607"/>
      <point x="511" y="584" type="curve"/>
      <point x="553" y="631" type="line"/>
      <point x="521" y="669"/>
      <point x="442" y="689"/>
      <point x="387" y="689" type="curve" smooth="yes"/>
      <point x="252" y="689"/>
      <point x="128" y="612"/>
      <point x="128" y="476" type="curve" smooth="yes"/>
      <point x="128" y="445"/>
      <point x="136" y="419"/>
      <point x="149" y="397" type="curve"/>
      <point x="84" y="346"/>
      <point x="37" y="268"/>
      <point x="37" y="171" type="curve" smooth="yes"/>
      <point x="37" y="64"/>
      <point x="126" y="-13"/>
      <point x="230" y="-13" type="curve" smooth="yes"/>
      <point x="386" y="-13"/>
      <point x="498" y="79"/>
      <point x="532" y="210" type="curve"/>
      <point x="547" y="210" type="line" smooth="yes"/>
      <point x="620" y="210"/>
      <point x="652" y="245"/>
      <point x="654" y="303" type="curve"/>
    </contour>
    <contour>
      <point x="364" y="379"/>
      <point x="349" y="364"/>
      <point x="305" y="364" type="curve" smooth="yes"/>
      <point x="277" y="364"/>
      <point x="257" y="375"/>
      <point x="243" y="389" type="curve"/>
      <point x="267" y="402"/>
      <point x="294" y="410"/>
      <point x="326" y="410" type="curve" smooth="yes"/>
      <point x="347" y="410"/>
      <point x="364" y="403"/>
      <point x="364" y="391" type="curve" smooth="yes"/>
    </contour>
  </outline>
</glyph>
<glyph name="quotesingle" format="1">
  <advance width="157"/>
  <unicode hex="0027"/>
  <outline>
    <contour>
      <point x="169" y="724" type="line"/>
      <point x="89" y="724" type="line"/>
      <point x="64" y="550" type="line"/>
      <point x="73" y="436" type="line"/>
      <point x="101" y="436" type="line"/>
      <point x="144" y="548" type="line"/>
    </contour>
  </outline>
</glyph>
<glyph name="parenleft" format="1">
  <advance width="323"/>
  <unicode hex="0028"/>
  <outline>
    <contour>
      <point x="292" y="737" type="line"/>
      <point x="155" y="594"/>
      <point x="59" y="408"/>
      <point x="59" y="210" type="curve" smooth="yes"/>
      <point x="59" y="85"/>
      <point x="97" y="-35"/>
      <point x="169" y="-140" type="curve"/>
      <point x="234" y="-130" type="line"/>
      <point x="170" y="-28"/>
      <point x="141" y="76"/>
      <point x="141" y="189" type="curve" smooth="yes"/>
      <point x="141" y="389"/>
      <point x="215" y="572"/>
      <point x="356" y="727" type="curve"/>
    </contour>
  </outline>
</glyph>
<glyph name="parenright" format="1">
  <advance width="328"/>
  <unicode hex="0029"/>
  <outline>
    <contour>
      <point x="297" y="511"/>
      <point x="259" y="632"/>
      <point x="187" y="737" type="curve"/>
      <point x="122" y="727" type="line"/>
      <point x="186" y="625"/>
      <point x="215" y="521"/>
      <point x="215" y="407" type="curve" smooth="yes"/>
      <point x="215" y="208"/>
      <point x="141" y="24"/>
      <point x="0" y="-130" type="curve"/>
      <point x="65" y="-140" type="line"/>
      <point x="202" y="3"/>
      <point x="297" y="188"/>
      <point x="297" y="386" type="curve" smooth="yes"/>
    </contour>
  </outline>
</glyph>
<glyph name="asterisk" format="1">
  <advance width="405"/>
  <unicode hex="002A"/>
  <outline>
    <contour>
      <point x="440" y="565" type="line"/>
      <point x="421" y="642" type="line"/>
      <point x="293" y="580" type="line"/>
      <point x="299" y="537" type="line"/>
    </contour>
    <contour>
      <point x="317" y="724" type="line"/>
      <point x="238" y="724" type="line"/>
      <point x="238" y="587" type="line"/>
      <point x="280" y="587" type="line"/>
    </contour>
    <contour>
      <point x="375" y="425" type="line"/>
      <point x="290" y="523" type="line"/>
      <point x="255" y="501" type="line"/>
      <point x="306" y="377" type="line"/>
    </contour>
    <contour>
      <point x="227" y="578" type="line"/>
      <point x="106" y="638" type="line"/>
      <point x="75" y="563" type="line"/>
      <point x="208" y="542" type="line"/>
    </contour>
    <contour>
      <point x="240" y="500" type="line"/>
      <point x="209" y="526" type="line"/>
      <point x="100" y="425" type="line"/>
      <point x="155" y="379" type="line"/>
    </contour>
  </outline>
</glyph>
<glyph name="plus" format="1">
  <advance width="642"/>
  <unicode hex="002B"/>
  <outline>
    <contour>
      <point x="567" y="211" type="line"/>
      <point x="567" y="280" type="line"/>
      <point x="352" y="280" type="line"/>
      <point x="352" y="490" type="line"/>
      <point x="282" y="490" type="line"/>
      <point x="282" y="280" type="line"/>
      <point x="68" y="280" type="line"/>
      <point x="68" y="211" type="line"/>
      <point x="282" y="211" type="line"/>
      <point x="282" y="0" type="line"/>
      <point x="352" y="0" type="line"/>
      <point x="352" y="211" type="line"/>
    </contour>
  </outline>
</glyph>
<glyph name="comma" format="1">
  <advance width="251"/>
  <unicode hex="002C"/>
  <outline>
    <contour>
      <point x="171" y="88"/>
      <point x="148" y="120"/>
      <point x="105" y="120" type="curve" smooth="yes"/>
      <point x="69" y="120"/>
      <point x="36" y="97"/>
      <point x="36" y="54" type="curve" smooth="yes"/>
      <point x="36" y="16"/>
      <point x="76" y="1"/>
      <point x="76" y="-18" type="curve" smooth="yes"/>
      <point x="76" y="-43"/>
      <point x="45" y="-70"/>
      <point x="24" y="-87" type="curve" smooth="yes"/>
      <point x="18" y="-92" type="line"/>
      <point x="48" y="-125" type="line"/>
      <point x="107" y="-86"/>
      <point x="171" y="-22"/>
      <point x="171" y="50" type="curve" smooth="yes"/>
    </contour>
  </outline>
</glyph>
<glyph name="hyphen" format="1">
  <advance width="324"/>
  <unicode hex="002D"/>
  <outline>
    <contour>
      <point x="286" y="293" type="line"/>
      <point x="45" y="293" type="line"/>
      <point x="34" y="222" type="line"/>
      <point x="275" y="222" type="line"/>
    </contour>
  </outline>
</glyph>
<glyph name="period" format="1">
  <advance width="247"/>
  <unicode hex="002E"/>
  <outline>
    <contour>
      <point x="167" y="91"/>
      <point x="137" y="120"/>
      <point x="100" y="120" type="curve" smooth="yes"/>
      <point x="64" y="120"/>
      <point x="35" y="90"/>
      <point x="35" y="54" type="curve" smooth="yes"/>
      <point x="35" y="17"/>
      <point x="64" y="-13"/>
      <point x="101" y="-13" type="curve" smooth="yes"/>
      <point x="137" y="-13"/>
      <point x="167" y="17"/>
      <point x="167" y="54" type="curve" smooth="yes"/>
    </contour>
  </outline>
</glyph>
<glyph name="slash" format="1">
  <advance width="293"/>
  <unicode hex="002F"/>
  <outline>
    <contour>
      <point x="307" y="724" type="line"/>
      <point x="241" y="724" type="line"/>
      <point x="-14" y="-8" type="line"/>
      <point x="54" y="-8" type="line"/>
    </contour>
  </outline>
</glyph>
<glyph name="zero" format="1">
  <advance width="513"/>
  <unicode hex="0030"/>
  <outline>
    <contour>
      <point x="488" y="405"/>
      <point x="417" y="503"/>
      <point x="286" y="503" type="curve" smooth="yes"/>
      <point x="122" y="503"/>
      <point x="25" y="355"/>
      <point x="25" y="206" type="curve" smooth="yes"/>
      <point x="25" y="85"/>
      <point x="96" y="-13"/>
      <point x="227" y="-13" type="curve" smooth="yes"/>
      <point x="390" y="-13"/>
      <point x="488" y="136"/>
      <point x="488" y="284" type="curve" smooth="yes"/>
    </contour>
    <contour>
      <point x="402" y="184"/>
      <point x="366" y="49"/>
      <point x="233" y="49" type="curve" smooth="yes"/>
      <point x="141" y="49"/>
      <point x="110" y="110"/>
      <point x="110" y="194" type="curve" smooth="yes"/>
      <point x="110" y="306"/>
      <point x="148" y="441"/>
      <point x="280" y="441" type="curve" smooth="yes"/>
      <point x="372" y="441"/>
      <point x="402" y="381"/>
      <point x="402" y="297" type="curve" smooth="yes"/>
    </contour>
  </outline>
</glyph>
<glyph name="one" format="1">
  <advance width="376"/>
  <unicode hex="0031"/>
  <outline>
    <contour>
      <point x="344" y="67" type="line"/>
      <point x="237" y="67" type="line"/>
      <point x="294" y="493" type="line"/>
      <point x="246" y="493" type="line"/>
      <point x="86" y="417" type="line"/>
      <point x="92" y="370" type="line"/>
      <point x="202" y="401" type="line"/>
      <point x="157" y="67" type="line"/>
      <point x="46" y="67" type="line"/>
      <point x="38" y="0" type="line"/>
      <point x="335" y="0" type="line"/>
    </contour>
  </outline>
</glyph>
<glyph name="two" format="1">
  <advance width="450"/>
  <unicode hex="0032"/>
  <outline>
    <contour>
      <point x="35" y="0" type="line"/>
      <point x="413" y="0" type="line"/>
      <point x="427" y="68" type="line"/>
      <point x="140" y="68" type="line"/>
      <point x="296" y="201" type="line" smooth="yes"/>
      <point x="349" y="246"/>
      <point x="409" y="306"/>
      <point x="409" y="383" type="curve" smooth="yes"/>
      <point x="409" y="462"/>
      <point x="345" y="503"/>
      <point x="272" y="503" type="curve" smooth="yes"/>
      <point x="191" y="503"/>
      <point x="129" y="462"/>
      <point x="82" y="404" type="curve"/>
      <point x="129" y="366" type="line"/>
      <point x="129" y="366"/>
      <point x="184" y="441"/>
      <point x="257" y="441" type="curve" smooth="yes"/>
      <point x="302" y="441"/>
      <point x="318" y="406"/>
      <point x="318" y="379" type="curve" smooth="yes"/>
      <point x="318" y="334"/>
      <point x="284" y="296"/>
      <point x="249" y="262" type="curve" smooth="yes"/>
      <point x="214" y="228"/>
      <point x="35" y="53"/>
      <point x="35" y="53" type="curve"/>
    </contour>
  </outline>
</glyph>
<glyph name="four" format="1">
  <advance width="477"/>
  <unicode hex="0034"/>
  <outline>
    <contour>
      <point x="453" y="69" type="line"/>
      <point x="358" y="69" type="line"/>
      <point x="414" y="490" type="line"/>
      <point x="320" y="490" type="line"/>
      <point x="-3" y="41" type="line"/>
      <point x="-3" y="0" type="line"/>
      <point x="269" y="0" type="line"/>
      <point x="244" y="-183" type="line"/>
      <point x="323" y="-183" type="line"/>
      <point x="348" y="0" type="line"/>
      <point x="441" y="0" type="line"/>
    </contour>
    <contour>
      <point x="322" y="391" type="line"/>
      <point x="278" y="69" type="line"/>
      <point x="90" y="69" type="line"/>
    </contour>
  </outline>
</glyph>
<glyph name="five" format="1">
  <advance width="344"/>
  <unicode hex="0035"/>
  <outline>
    <contour>
      <point x="328" y="490" type="line"/>
      <point x="103" y="490" type="line"/>
      <point x="18" y="283" type="line"/>
      <point x="105" y="241"/>
      <point x="184" y="159"/>
      <point x="184" y="75" type="curve" smooth="yes"/>
      <point x="184" y="-75"/>
      <point x="50" y="-130"/>
      <point x="-26" y="-155" type="curve"/>
      <point x="-12" y="-207" type="line"/>
      <point x="-12" y="-207"/>
      <point x="270" y="-161"/>
      <point x="270" y="80" type="curve" smooth="yes"/>
      <point x="270" y="216"/>
      <point x="162" y="296"/>
      <point x="105" y="327" type="curve"/>
      <point x="136" y="406" type="line"/>
      <point x="304" y="406" type="line"/>
    </contour>
  </outline>
</glyph>
<glyph name="six" format="1">
  <advance width="497"/>
  <unicode hex="0036"/>
  <outline>
    <contour>
      <point x="471" y="726" type="line"/>
      <point x="426" y="710"/>
      <point x="386" y="689"/>
      <point x="346" y="665" type="curve" smooth="yes"/>
      <point x="187" y="568"/>
      <point x="61" y="425"/>
      <point x="33" y="235" type="curve" smooth="yes"/>
      <point x="31" y="219"/>
      <point x="30" y="204"/>
      <point x="30" y="189" type="curve" smooth="yes"/>
      <point x="30" y="82"/>
      <point x="97" y="-13"/>
      <point x="212" y="-13" type="curve" smooth="yes"/>
      <point x="352" y="-13"/>
      <point x="449" y="103"/>
      <point x="449" y="238" type="curve" smooth="yes"/>
      <point x="449" y="329"/>
      <point x="387" y="403"/>
      <point x="292" y="403" type="curve" smooth="yes"/>
      <point x="244" y="403"/>
      <point x="191" y="383"/>
      <point x="153" y="354" type="curve"/>
      <point x="213" y="500"/>
      <point x="343" y="616"/>
      <point x="494" y="677" type="curve"/>
    </contour>
    <contour>
      <point x="361" y="144"/>
      <point x="311" y="49"/>
      <point x="221" y="49" type="curve" smooth="yes"/>
      <point x="148" y="49"/>
      <point x="117" y="119"/>
      <point x="117" y="187" type="curve" smooth="yes"/>
      <point x="117" y="214"/>
      <point x="121" y="242"/>
      <point x="127" y="268" type="curve"/>
      <point x="164" y="303"/>
      <point x="212" y="335"/>
      <point x="263" y="335" type="curve" smooth="yes"/>
      <point x="326" y="335"/>
      <point x="361" y="286"/>
      <point x="361" y="226" type="curve" smooth="yes"/>
    </contour>
  </outline>
</glyph>
<glyph name="eight" format="1">
  <advance width="461"/>
  <unicode hex="0038"/>
  <outline>
    <contour>
      <point x="436" y="619"/>
      <point x="422" y="722"/>
      <point x="286" y="722" type="curve" smooth="yes"/>
      <point x="150" y="722"/>
      <point x="100" y="611"/>
      <point x="100" y="544" type="curve" smooth="yes"/>
      <point x="100" y="474"/>
      <point x="139" y="419"/>
      <point x="184" y="369" type="curve"/>
      <point x="104" y="306"/>
      <point x="24" y="239"/>
      <point x="24" y="140" type="curve" smooth="yes"/>
      <point x="24" y="67"/>
      <point x="63" y="-13"/>
      <point x="190" y="-13" type="curve" smooth="yes"/>
      <point x="316" y="-13"/>
      <point x="405" y="58"/>
      <point x="405" y="180" type="curve" smooth="yes"/>
      <point x="405" y="262"/>
      <point x="354" y="320"/>
      <point x="302" y="377" type="curve"/>
      <point x="373" y="433"/>
      <point x="436" y="496"/>
      <point x="436" y="585" type="curve" smooth="yes"/>
    </contour>
    <contour>
      <point x="358" y="522"/>
      <point x="315" y="474"/>
      <point x="259" y="427" type="curve"/>
      <point x="220" y="472"/>
      <point x="191" y="510"/>
      <point x="191" y="556" type="curve" smooth="yes"/>
      <point x="191" y="590"/>
      <point x="212" y="663"/>
      <point x="288" y="663" type="curve" smooth="yes"/>
      <point x="341" y="663"/>
      <point x="358" y="612"/>
      <point x="358" y="582" type="curve" smooth="yes"/>
    </contour>
    <contour>
      <point x="315" y="85"/>
      <point x="253" y="46"/>
      <point x="199" y="46" type="curve" smooth="yes"/>
      <point x="152" y="46"/>
      <point x="104" y="77"/>
      <point x="104" y="145" type="curve" smooth="yes"/>
      <point x="104" y="216"/>
      <point x="160" y="268"/>
      <point x="227" y="320" type="curve"/>
      <point x="268" y="277"/>
      <point x="315" y="225"/>
      <point x="315" y="177" type="curve" smooth="yes"/>
    </contour>
  </outline>
</glyph>
<glyph name="nine" format="1">
  <advance width="486"/>
  <unicode hex="0039"/>
  <outline>
    <contour>
      <point x="461" y="417"/>
      <point x="397" y="503"/>
      <point x="279" y="503" type="curve" smooth="yes"/>
      <point x="146" y="503"/>
      <point x="43" y="384"/>
      <point x="43" y="256" type="curve" smooth="yes"/>
      <point x="43" y="171"/>
      <point x="106" y="87"/>
      <point x="198" y="87" type="curve" smooth="yes"/>
      <point x="246" y="87"/>
      <point x="299" y="106"/>
      <point x="338" y="136" type="curve"/>
      <point x="276" y="-12"/>
      <point x="145" y="-101"/>
      <point x="-7" y="-163" type="curve"/>
      <point x="16" y="-215" type="line"/>
      <point x="63" y="-200"/>
      <point x="102" y="-184"/>
      <point x="142" y="-162" type="curve" smooth="yes"/>
      <point x="304" y="-73"/>
      <point x="431" y="66"/>
      <point x="458" y="256" type="curve" smooth="yes"/>
      <point x="460" y="272"/>
      <point x="461" y="289"/>
      <point x="461" y="305" type="curve" smooth="yes"/>
    </contour>
    <contour>
      <point x="374" y="278"/>
      <point x="371" y="250"/>
      <point x="364" y="222" type="curve"/>
      <point x="328" y="188"/>
      <point x="280" y="155"/>
      <point x="229" y="155" type="curve" smooth="yes"/>
      <point x="166" y="155"/>
      <point x="130" y="205"/>
      <point x="130" y="264" type="curve" smooth="yes"/>
      <point x="130" y="343"/>
      <point x="184" y="441"/>
      <point x="270" y="441" type="curve" smooth="yes"/>
      <point x="347" y="441"/>
      <point x="374" y="377"/>
      <point x="374" y="307" type="curve" smooth="yes"/>
    </contour>
  </outline>
</glyph>
<glyph name="colon" format="1">
  <advance width="247"/>
  <unicode hex="003A"/>
  <outline>
    <contour>
      <point x="212" y="399"/>
      <point x="182" y="428"/>
      <point x="145" y="428" type="curve" smooth="yes"/>
      <point x="109" y="428"/>
      <point x="80" y="398"/>
      <point x="80" y="362" type="curve" smooth="yes"/>
      <point x="80" y="325"/>
      <point x="109" y="295"/>
      <point x="146" y="295" type="curve" smooth="yes"/>
      <point x="182" y="295"/>
      <point x="212" y="325"/>
      <point x="212" y="362" type="curve" smooth="yes"/>
    </contour>
    <contour>
      <point x="167" y="91"/>
      <point x="137" y="120"/>
      <point x="100" y="120" type="curve" smooth="yes"/>
      <point x="64" y="120"/>
      <point x="35" y="90"/>
      <point x="35" y="54" type="curve" smooth="yes"/>
      <point x="35" y="17"/>
      <point x="64" y="-13"/>
      <point x="101" y="-13" type="curve" smooth="yes"/>
      <point x="137" y="-13"/>
      <point x="167" y="17"/>
      <point x="167" y="54" type="curve" smooth="yes"/>
    </contour>
  </outline>
</glyph>
<glyph name="semicolon" format="1">
  <advance width="251"/>
  <unicode hex="003B"/>
  <outline>
    <contour>
      <point x="214" y="399"/>
      <point x="184" y="428"/>
      <point x="147" y="428" type="curve" smooth="yes"/>
      <point x="111" y="428"/>
      <point x="82" y="398"/>
      <point x="82" y="362" type="curve" smooth="yes"/>
      <point x="82" y="325"/>
      <point x="111" y="295"/>
      <point x="148" y="295" type="curve" smooth="yes"/>
      <point x="184" y="295"/>
      <point x="214" y="325"/>
      <point x="214" y="362" type="curve" smooth="yes"/>
    </contour>
    <contour>
      <point x="171" y="88"/>
      <point x="148" y="120"/>
      <point x="105" y="120" type="curve" smooth="yes"/>
      <point x="69" y="120"/>
      <point x="36" y="97"/>
      <point x="36" y="54" type="curve" smooth="yes"/>
      <point x="36" y="16"/>
      <point x="76" y="1"/>
      <point x="76" y="-18" type="curve" smooth="yes"/>
      <point x="76" y="-43"/>
      <point x="45" y="-70"/>
      <point x="24" y="-87" type="curve" smooth="yes"/>
      <point x="18" y="-92" type="line"/>
      <point x="48" y="-125" type="line"/>
      <point x="107" y="-86"/>
      <point x="171" y="-22"/>
      <point x="171" y="50" type="curve" smooth="yes"/>
    </contour>
  </outline>
</glyph>
<glyph name="less" format="1">
  <advance width="630"/>
  <unicode hex="003C"/>
  <outline>
    <contour>
      <point x="566" y="-7" type="line"/>
      <point x="566" y="68" type="line"/>
      <point x="161" y="243" type="line"/>
      <point x="566" y="418" type="line"/>
      <point x="566" y="494" type="line"/>
      <point x="68" y="281" type="line"/>
      <point x="68" y="208" type="line"/>
    </contour>
  </outline>
</glyph>
<glyph name="equal" format="1">
  <advance width="630"/>
  <unicode hex="003D"/>
  <outline>
    <contour>
      <point x="567" y="305" type="line"/>
      <point x="567" y="373" type="line"/>
      <point x="68" y="373" type="line"/>
      <point x="68" y="305" type="line"/>
    </contour>
    <contour>
      <point x="567" y="115" type="line"/>
      <point x="567" y="184" type="line"/>
      <point x="68" y="184" type="line"/>
      <point x="68" y="115" type="line"/>
    </contour>
  </outline>
</glyph>
<glyph name="greater" format="1">
  <advance width="630"/>
  <unicode hex="003E"/>
  <outline>
    <contour>
      <point x="566" y="208" type="line"/>
      <point x="566" y="281" type="line"/>
      <point x="68" y="494" type="line"/>
      <point x="68" y="418" type="line"/>
      <point x="473" y="243" type="line"/>
      <point x="68" y="68" type="line"/>
      <point x="68" y="-7" type="line"/>
    </contour>
  </outline>
</glyph>
<glyph name="question" format="1">
  <advance width="382"/>
  <unicode hex="003F"/>
  <outline>
    <contour>
      <point x="385" y="679"/>
      <point x="318" y="729"/>
      <point x="226" y="729" type="curve" smooth="yes"/>
      <point x="196" y="729"/>
      <point x="165" y="726"/>
      <point x="136" y="717" type="curve"/>
      <point x="153" y="650" type="line"/>
      <point x="174" y="662"/>
      <point x="205" y="664"/>
      <point x="229" y="664" type="curve" smooth="yes"/>
      <point x="266" y="664"/>
      <point x="305" y="642"/>
      <point x="305" y="602" type="curve" smooth="yes"/>
      <point x="305" y="460"/>
      <point x="57" y="527"/>
      <point x="57" y="345" type="curve" smooth="yes"/>
      <point x="57" y="245"/>
      <point x="152" y="211"/>
      <point x="237" y="203" type="curve"/>
      <point x="256" y="271" type="line"/>
      <point x="212" y="272"/>
      <point x="135" y="284"/>
      <point x="135" y="341" type="curve" smooth="yes"/>
      <point x="135" y="445"/>
      <point x="385" y="387"/>
      <point x="385" y="583" type="curve" smooth="yes"/>
    </contour>
    <contour>
      <point x="167" y="88"/>
      <point x="137" y="119"/>
      <point x="101" y="119" type="curve" smooth="yes"/>
      <point x="65" y="119"/>
      <point x="35" y="87"/>
      <point x="35" y="52" type="curve" smooth="yes"/>
      <point x="35" y="16"/>
      <point x="66" y="-14"/>
      <point x="102" y="-14" type="curve" smooth="yes"/>
      <point x="137" y="-14"/>
      <point x="167" y="17"/>
      <point x="167" y="52" type="curve" smooth="yes"/>
    </contour>
  </outline>
</glyph>
<glyph name="A" format="1">
  <advance width="605"/>
  <unicode hex="0041"/>
  <outline>
    <contour>
      <point x="561" y="0" type="line"/>
      <point x="419" y="724" type="line"/>
      <point x="332" y="724" type="line"/>
      <point x="-6" y="0" type="line"/>
      <point x="75" y="0" type="line"/>
      <point x="190" y="249" type="line"/>
      <point x="417" y="249" type="line"/>
      <point x="464" y="0" type="line"/>
    </contour>
    <contour>
      <point x="404" y="316" type="line"/>
      <point x="221" y="316" type="line"/>
      <point x="351" y="602" type="line"/>
    </contour>
  </outline>
</glyph>
<glyph name="B" format="1">
  <advance width="580"/>
  <unicode hex="0042"/>
  <outline>
    <contour>
      <point x="550" y="690"/>
      <point x="459" y="724"/>
      <point x="356" y="724" type="curve" smooth="yes"/>
      <point x="134" y="724" type="line"/>
      <point x="134" y="659" type="line"/>
      <point x="45" y="0" type="line"/>
      <point x="234" y="0" type="line" smooth="yes"/>
      <point x="391" y="0"/>
      <point x="534" y="50"/>
      <point x="534" y="235" type="curve" smooth="yes"/>
      <point x="534" y="323"/>
      <point x="482" y="375"/>
      <point x="404" y="395" type="curve"/>
      <point x="489" y="418"/>
      <point x="550" y="484"/>
      <point x="550" y="574" type="curve" smooth="yes"/>
    </contour>
    <contour>
      <point x="456" y="470"/>
      <point x="389" y="427"/>
      <point x="292" y="427" type="curve" smooth="yes"/>
      <point x="193" y="427" type="line"/>
      <point x="223" y="655" type="line"/>
      <point x="345" y="655" type="line" smooth="yes"/>
      <point x="404" y="655"/>
      <point x="456" y="635"/>
      <point x="456" y="570" type="curve" smooth="yes"/>
    </contour>
    <contour>
      <point x="441" y="119"/>
      <point x="362" y="69"/>
      <point x="248" y="69" type="curve" smooth="yes"/>
      <point x="145" y="69" type="line"/>
      <point x="182" y="355" type="line"/>
      <point x="288" y="355" type="line" smooth="yes"/>
      <point x="365" y="355"/>
      <point x="441" y="326"/>
      <point x="441" y="241" type="curve" smooth="yes"/>
    </contour>
  </outline>
</glyph>
<glyph name="C" format="1">
  <advance width="585"/>
  <unicode hex="0043"/>
  <outline>
    <contour>
      <point x="620" y="657" type="line"/>
      <point x="571" y="714"/>
      <point x="491" y="734"/>
      <point x="423" y="734" type="curve" smooth="yes"/>
      <point x="181" y="734"/>
      <point x="45" y="516"/>
      <point x="45" y="298" type="curve" smooth="yes"/>
      <point x="45" y="128"/>
      <point x="137" y="-10"/>
      <point x="322" y="-10" type="curve" smooth="yes"/>
      <point x="396" y="-10"/>
      <point x="478" y="14"/>
      <point x="541" y="59" type="curve"/>
      <point x="510" y="127" type="line"/>
      <point x="457" y="88"/>
      <point x="393" y="65"/>
      <point x="333" y="65" type="curve" smooth="yes"/>
      <point x="195" y="65"/>
      <point x="142" y="167"/>
      <point x="142" y="292" type="curve" smooth="yes"/>
      <point x="142" y="454"/>
      <point x="225" y="665"/>
      <point x="413" y="665" type="curve" smooth="yes"/>
      <point x="468" y="665"/>
      <point x="524" y="645"/>
      <point x="564" y="599" type="curve"/>
    </contour>
  </outline>
</glyph>
<glyph name="D" format="1">
  <advance width="679"/>
  <unicode hex="0044"/>
  <outline>
    <contour>
      <point x="639" y="595"/>
      <point x="560" y="724"/>
      <point x="378" y="724" type="curve" smooth="yes"/>
      <point x="134" y="724" type="line"/>
      <point x="134" y="659" type="line"/>
      <point x="45" y="0" type="line"/>
      <point x="275" y="0" type="line" smooth="yes"/>
      <point x="524" y="0"/>
      <point x="639" y="218"/>
      <point x="639" y="434" type="curve" smooth="yes"/>
    </contour>
    <contour>
      <point x="545" y="278"/>
      <point x="468" y="69"/>
      <point x="281" y="69" type="curve" smooth="yes"/>
      <point x="145" y="69" type="line"/>
      <point x="223" y="655" type="line"/>
      <point x="369" y="655" type="line" smooth="yes"/>
      <point x="503" y="655"/>
      <point x="545" y="544"/>
      <point x="545" y="430" type="curve" smooth="yes"/>
    </contour>
  </outline>
</glyph>
<glyph name="E" format="1">
  <advance width="500"/>
  <unicode hex="0045"/>
  <outline>
    <contour>
      <point x="544" y="724" type="line"/>
      <point x="133" y="724" type="line"/>
      <point x="133" y="659" type="line"/>
      <point x="45" y="0" type="line"/>
      <point x="447" y="0" type="line"/>
      <point x="456" y="69" type="line"/>
      <point x="143" y="69" type="line"/>
      <point x="179" y="337" type="line"/>
      <point x="421" y="337" type="line"/>
      <point x="431" y="405" type="line"/>
      <point x="189" y="405" type="line"/>
      <point x="221" y="655" type="line"/>
      <point x="534" y="655" type="line"/>
    </contour>
  </outline>
</glyph>
<glyph name="F" format="1">
  <advance width="468"/>
  <unicode hex="0046"/>
  <outline>
    <contour>
      <point x="512" y="724" type="line"/>
      <point x="132" y="724" type="line"/>
      <point x="132" y="659" type="line"/>
      <point x="44" y="0" type="line"/>
      <point x="133" y="0" type="line"/>
      <point x="179" y="338" type="line"/>
      <point x="402" y="338" type="line"/>
      <point x="412" y="406" type="line"/>
      <point x="189" y="406" type="line"/>
      <point x="221" y="655" type="line"/>
      <point x="503" y="655" type="line"/>
    </contour>
  </outline>
</glyph>
<glyph name="H" format="1">
  <advance width="672"/>
  <unicode hex="0048"/>
  <outline>
    <contour>
      <point x="656" y="724" type="line"/>
      <point x="566" y="724" type="line"/>
      <point x="524" y="410" type="line"/>
      <point x="190" y="410" type="line"/>
      <point x="232" y="724" type="line"/>
      <point x="133" y="724" type="line"/>
      <point x="133" y="659" type="line"/>
      <point x="44" y="0" type="line"/>
      <point x="134" y="0" type="line"/>
      <point x="180" y="342" type="line"/>
      <point x="514" y="342" type="line"/>
      <point x="468" y="0" type="line"/>
      <point x="558" y="0" type="line"/>
    </contour>
  </outline>
</glyph>
<glyph name="I" format="1">
  <advance width="251"/>
  <unicode hex="0049"/>
  <outline>
    <contour>
      <point x="235" y="724" type="line"/>
      <point x="136" y="724" type="line"/>
      <point x="136" y="659" type="line"/>
      <point x="47" y="0" type="line"/>
      <point x="137" y="0" type="line"/>
    </contour>
  </outline>
</glyph>
<glyph name="J" format="1">
  <advance width="253"/>
  <unicode hex="004A"/>
  <outline>
    <contour>
      <point x="238" y="724" type="line"/>
      <point x="140" y="724" type="line"/>
      <point x="140" y="660" type="line"/>
      <point x="52" y="17" type="line" smooth="yes"/>
      <point x="40" y="-71"/>
      <point x="10" y="-165"/>
      <point x="-68" y="-165" type="curve" smooth="yes"/>
      <point x="-99" y="-165"/>
      <point x="-113" y="-160"/>
      <point x="-141" y="-140" type="curve"/>
      <point x="-181" y="-197" type="line"/>
      <point x="-145" y="-224"/>
      <point x="-105" y="-229"/>
      <point x="-67" y="-229" type="curve" smooth="yes"/>
      <point x="75" y="-229"/>
      <point x="120" y="-127"/>
      <point x="139" y="9" type="curve" smooth="yes"/>
    </contour>
  </outline>
</glyph>
<glyph name="K" format="1">
  <advance width="558"/>
  <unicode hex="004B"/>
  <outline>
    <contour>
      <point x="598" y="724" type="line"/>
      <point x="504" y="724" type="line"/>
      <point x="188" y="401" type="line"/>
      <point x="232" y="724" type="line"/>
      <point x="133" y="724" type="line"/>
      <point x="133" y="659" type="line"/>
      <point x="44" y="0" type="line"/>
      <point x="134" y="0" type="line"/>
      <point x="185" y="379" type="line"/>
      <point x="407" y="0" type="line"/>
      <point x="518" y="0" type="line"/>
      <point x="281" y="401" type="line"/>
    </contour>
  </outline>
</glyph>
<glyph name="L" format="1">
  <advance width="471"/>
  <unicode hex="004C"/>
  <outline>
    <contour>
      <point x="435" y="69" type="line"/>
      <point x="146" y="69" type="line"/>
      <point x="234" y="724" type="line"/>
      <point x="134" y="724" type="line"/>
      <point x="134" y="659" type="line"/>
      <point x="45" y="0" type="line"/>
      <point x="425" y="0" type="line"/>
    </contour>
  </outline>
</glyph>
<glyph name="M" format="1">
  <advance width="789"/>
  <unicode hex="004D"/>
  <outline>
    <contour>
      <point x="773" y="724" type="line"/>
      <point x="655" y="724" type="line"/>
      <point x="381" y="161" type="line"/>
      <point x="256" y="724" type="line"/>
      <point x="132" y="724" type="line"/>
      <point x="132" y="660" type="line"/>
      <point x="44" y="0" type="line"/>
      <point x="117" y="0" type="line"/>
      <point x="197" y="590" type="line"/>
      <point x="325" y="-2" type="line"/>
      <point x="378" y="-2" type="line"/>
      <point x="664" y="589" type="line"/>
      <point x="585" y="0" type="line"/>
      <point x="675" y="0" type="line"/>
    </contour>
  </outline>
</glyph>
<glyph name="N" format="1">
  <advance width="674"/>
  <unicode hex="004E"/>
  <outline>
    <contour>
      <point x="657" y="724" type="line"/>
      <point x="584" y="724" type="line"/>
      <point x="510" y="183" type="line"/>
      <point x="248" y="724" type="line"/>
      <point x="134" y="724" type="line"/>
      <point x="134" y="659" type="line"/>
      <point x="45" y="0" type="line"/>
      <point x="119" y="0" type="line"/>
      <point x="201" y="612" type="line"/>
      <point x="502" y="-5" type="line"/>
      <point x="559" y="-5" type="line"/>
    </contour>
  </outline>
</glyph>
<glyph name="O" format="1">
  <advance width="708"/>
  <unicode hex="004F"/>
  <outline>
    <contour>
      <point x="668" y="603"/>
      <point x="590" y="734"/>
      <point x="407" y="734" type="curve" smooth="yes"/>
      <point x="165" y="734"/>
      <point x="45" y="502"/>
      <point x="45" y="289" type="curve" smooth="yes"/>
      <point x="45" y="127"/>
      <point x="123" y="-10"/>
      <point x="304" y="-10" type="curve" smooth="yes"/>
      <point x="546" y="-10"/>
      <point x="668" y="216"/>
      <point x="668" y="438" type="curve" smooth="yes"/>
    </contour>
    <contour>
      <point x="574" y="275"/>
      <point x="504" y="59"/>
      <point x="317" y="59" type="curve" smooth="yes"/>
      <point x="182" y="59"/>
      <point x="140" y="174"/>
      <point x="140" y="291" type="curve" smooth="yes"/>
      <point x="140" y="449"/>
      <point x="212" y="665"/>
      <point x="398" y="665" type="curve" smooth="yes"/>
      <point x="532" y="665"/>
      <point x="574" y="551"/>
      <point x="574" y="433" type="curve" smooth="yes"/>
    </contour>
  </outline>
</glyph>
<glyph name="P" format="1">
  <advance width="539"/>
  <unicode hex="0050"/>
  <outline>
    <contour>
      <point x="544" y="677"/>
      <point x="449" y="724"/>
      <point x="332" y="724" type="curve" smooth="yes"/>
      <point x="135" y="724" type="line"/>
      <point x="135" y="659" type="line"/>
      <point x="46" y="0" type="line"/>
      <point x="137" y="0" type="line"/>
      <point x="175" y="286" type="line"/>
      <point x="279" y="286" type="line" smooth="yes"/>
      <point x="436" y="286"/>
      <point x="544" y="387"/>
      <point x="544" y="543" type="curve" smooth="yes"/>
    </contour>
    <contour>
      <point x="450" y="435"/>
      <point x="389" y="353"/>
      <point x="285" y="353" type="curve" smooth="yes"/>
      <point x="185" y="353" type="line"/>
      <point x="225" y="655" type="line"/>
      <point x="324" y="655" type="line" smooth="yes"/>
      <point x="404" y="655"/>
      <point x="450" y="612"/>
      <point x="450" y="532" type="curve" smooth="yes"/>
    </contour>
  </outline>
</glyph>
<glyph name="Q" format="1">
  <advance width="714"/>
  <unicode hex="0051"/>
  <outline>
    <contour>
      <point x="1069" y="-128" type="line"/>
      <point x="1013" y="-144"/>
      <point x="953" y="-158"/>
      <point x="899" y="-158" type="curve" smooth="yes"/>
      <point x="776" y="-158"/>
      <point x="602" y="-71"/>
      <point x="493" y="-10" type="curve" smooth="yes"/>
      <point x="476" y="0"/>
      <point x="457" y="8"/>
      <point x="439" y="15" type="curve"/>
      <point x="596" y="87"/>
      <point x="668" y="275"/>
      <point x="668" y="436" type="curve" smooth="yes"/>
      <point x="668" y="601"/>
      <point x="590" y="734"/>
      <point x="407" y="734" type="curve" smooth="yes"/>
      <point x="165" y="734"/>
      <point x="45" y="500"/>
      <point x="45" y="287" type="curve" smooth="yes"/>
      <point x="45" y="149"/>
      <point x="106" y="11"/>
      <point x="281" y="-11" type="curve" smooth="yes"/>
      <point x="434" y="-31"/>
      <point x="658" y="-222"/>
      <point x="857" y="-222" type="curve" smooth="yes"/>
      <point x="942" y="-222"/>
      <point x="1002" y="-203"/>
      <point x="1084" y="-175" type="curve"/>
    </contour>
    <contour>
      <point x="574" y="273"/>
      <point x="504" y="56"/>
      <point x="317" y="56" type="curve" smooth="yes"/>
      <point x="182" y="56"/>
      <point x="140" y="171"/>
      <point x="140" y="289" type="curve" smooth="yes"/>
      <point x="140" y="446"/>
      <point x="212" y="665"/>
      <point x="398" y="665" type="curve" smooth="yes"/>
      <point x="532" y="665"/>
      <point x="574" y="549"/>
      <point x="574" y="430" type="curve" smooth="yes"/>
    </contour>
  </outline>
</glyph>
<glyph name="R" format="1">
  <advance width="568"/>
  <unicode hex="0052"/>
  <outline>
    <contour>
      <point x="545" y="678"/>
      <point x="454" y="724"/>
      <point x="349" y="724" type="curve" smooth="yes"/>
      <point x="133" y="724" type="line"/>
      <point x="133" y="659" type="line"/>
      <point x="44" y="0" type="line"/>
      <point x="135" y="0" type="line"/>
      <point x="178" y="324" type="line"/>
      <point x="206" y="324" type="line" smooth="yes"/>
      <point x="233" y="324"/>
      <point x="273" y="324"/>
      <point x="296" y="326" type="curve"/>
      <point x="431" y="0" type="line"/>
      <point x="534" y="0" type="line"/>
      <point x="386" y="343" type="line"/>
      <point x="481" y="371"/>
      <point x="545" y="459"/>
      <point x="545" y="556" type="curve" smooth="yes"/>
    </contour>
    <contour>
      <point x="451" y="436"/>
      <point x="369" y="392"/>
      <point x="261" y="392" type="curve" smooth="yes"/>
      <point x="188" y="392" type="line"/>
      <point x="223" y="655" type="line"/>
      <point x="326" y="655" type="line" smooth="yes"/>
      <point x="395" y="655"/>
      <point x="451" y="621"/>
      <point x="451" y="549" type="curve" smooth="yes"/>
    </contour>
  </outline>
</glyph>
<glyph name="S" format="1">
  <advance width="507"/>
  <unicode hex="0053"/>
  <outline>
    <contour>
      <point x="498" y="687" type="line"/>
      <point x="450" y="719"/>
      <point x="395" y="734"/>
      <point x="338" y="734" type="curve" smooth="yes"/>
      <point x="214" y="734"/>
      <point x="98" y="667"/>
      <point x="98" y="535" type="curve" smooth="yes"/>
      <point x="98" y="340"/>
      <point x="364" y="361"/>
      <point x="364" y="208" type="curve" smooth="yes"/>
      <point x="364" y="129"/>
      <point x="290" y="59"/>
      <point x="211" y="59" type="curve" smooth="yes"/>
      <point x="143" y="59"/>
      <point x="111" y="78"/>
      <point x="54" y="119" type="curve"/>
      <point x="12" y="44" type="line"/>
      <point x="73" y="10"/>
      <point x="141" y="-10"/>
      <point x="207" y="-10" type="curve" smooth="yes"/>
      <point x="343" y="-10"/>
      <point x="458" y="80"/>
      <point x="458" y="221" type="curve" smooth="yes"/>
      <point x="458" y="425"/>
      <point x="190" y="413"/>
      <point x="190" y="550" type="curve" smooth="yes"/>
      <point x="190" y="624"/>
      <point x="260" y="665"/>
      <point x="331" y="665" type="curve" smooth="yes"/>
      <point x="380" y="665"/>
      <point x="415" y="652"/>
      <point x="456" y="619" type="curve"/>
    </contour>
  </outline>
</glyph>
<glyph name="T" format="1">
  <advance width="514"/>
  <unicode hex="0054"/>
  <outline>
    <contour>
      <point x="558" y="724" type="line"/>
      <point x="50" y="724" type="line"/>
      <point x="40" y="655" type="line"/>
      <point x="249" y="655" type="line"/>
      <point x="161" y="0" type="line"/>
      <point x="252" y="0" type="line"/>
      <point x="340" y="655" type="line"/>
      <point x="549" y="655" type="line"/>
    </contour>
  </outline>
</glyph>
<glyph name="U" format="1">
  <advance width="638"/>
  <unicode hex="0055"/>
  <outline>
    <contour>
      <point x="623" y="724" type="line"/>
      <point x="549" y="724" type="line"/>
      <point x="486" y="258" type="line" smooth="yes"/>
      <point x="470" y="138"/>
      <point x="404" y="59"/>
      <point x="280" y="59" type="curve" smooth="yes"/>
      <point x="176" y="59"/>
      <point x="138" y="120"/>
      <point x="138" y="200" type="curve" smooth="yes"/>
      <point x="138" y="214"/>
      <point x="139" y="227"/>
      <point x="141" y="243" type="curve" smooth="yes"/>
      <point x="206" y="724" type="line"/>
      <point x="106" y="724" type="line"/>
      <point x="106" y="660" type="line"/>
      <point x="50" y="244" type="line" smooth="yes"/>
      <point x="48" y="226"/>
      <point x="46" y="208"/>
      <point x="46" y="192" type="curve" smooth="yes"/>
      <point x="46" y="81"/>
      <point x="102" y="-10"/>
      <point x="268" y="-10" type="curve" smooth="yes"/>
      <point x="458" y="-10"/>
      <point x="539" y="109"/>
      <point x="559" y="257" type="curve" smooth="yes"/>
    </contour>
  </outline>
</glyph>
<glyph name="V" format="1">
  <advance width="518"/>
  <unicode hex="0056"/>
  <outline>
    <contour>
      <point x="578" y="724" type="line"/>
      <point x="501" y="724" type="line"/>
      <point x="242" y="163" type="line"/>
      <point x="139" y="724" type="line"/>
      <point x="44" y="724" type="line"/>
      <point x="185" y="-3" type="line"/>
      <point x="241" y="-3" type="line"/>
    </contour>
  </outline>
</glyph>
<glyph name="X" format="1">
  <advance width="545"/>
  <unicode hex="0058"/>
  <outline>
    <contour>
      <point x="578" y="724" type="line"/>
      <point x="493" y="724" type="line"/>
      <point x="301" y="460" type="line"/>
      <point x="185" y="724" type="line"/>
      <point x="83" y="724" type="line"/>
      <point x="236" y="372" type="line"/>
      <point x="-33" y="0" type="line"/>
      <point x="51" y="0" type="line"/>
      <point x="267" y="298" type="line"/>
      <point x="398" y="0" type="line"/>
      <point x="502" y="0" type="line"/>
      <point x="332" y="389" type="line"/>
    </contour>
  </outline>
</glyph>
<glyph name="Y" format="1">
  <advance width="477"/>
  <unicode hex="0059"/>
  <outline>
    <contour>
      <point x="538" y="724" type="line"/>
      <point x="454" y="724" type="line"/>
      <point x="267" y="444" type="line"/>
      <point x="145" y="724" type="line"/>
      <point x="42" y="724" type="line"/>
      <point x="199" y="359" type="line"/>
      <point x="151" y="0" type="line"/>
      <point x="242" y="0" type="line"/>
      <point x="290" y="358" type="line"/>
    </contour>
  </outline>
</glyph>
<glyph name="Z" format="1">
  <advance width="532"/>
  <unicode hex="005A"/>
  <outline>
    <contour>
      <point x="546" y="724" type="line"/>
      <point x="101" y="724" type="line"/>
      <point x="92" y="655" type="line"/>
      <point x="430" y="655" type="line"/>
      <point x="-8" y="67" type="line"/>
      <point x="-17" y="0" type="line"/>
      <point x="454" y="0" type="line"/>
      <point x="470" y="69" type="line"/>
      <point x="99" y="69" type="line"/>
      <point x="537" y="657" type="line"/>
    </contour>
  </outline>
</glyph>
<glyph name="bracketleft" format="1">
  <advance width="332"/>
  <unicode hex="005B"/>
  <outline>
    <contour>
      <point x="361" y="724" type="line"/>
      <point x="163" y="724" type="line"/>
      <point x="42" y="-130" type="line"/>
      <point x="240" y="-130" type="line"/>
      <point x="248" y="-81" type="line"/>
      <point x="128" y="-81" type="line"/>
      <point x="234" y="675" type="line"/>
      <point x="354" y="675" type="line"/>
    </contour>
  </outline>
</glyph>
<glyph name="backslash" format="1">
  <advance width="359"/>
  <unicode hex="005C"/>
  <outline>
    <contour>
      <point x="321" y="0" type="line"/>
      <point x="72" y="724" type="line"/>
      <point x="5" y="724" type="line"/>
      <point x="257" y="0" type="line"/>
    </contour>
  </outline>
</glyph>
<glyph name="asciicircum" format="1">
  <advance width="618"/>
  <unicode hex="005E"/>
  <outline>
    <contour>
      <point x="563" y="0" type="line"/>
      <point x="345" y="491" type="line"/>
      <point x="272" y="491" type="line"/>
      <point x="56" y="0" type="line"/>
      <point x="133" y="0" type="line"/>
      <point x="310" y="400" type="line"/>
      <point x="487" y="0" type="line"/>
    </contour>
  </outline>
</glyph>
<glyph name="grave" format="1">
  <advance width="248"/>
  <unicode hex="0060"/>
  <outline>
    <contour>
      <point x="250" y="577" type="line"/>
      <point x="168" y="724" type="line"/>
      <point x="50" y="724" type="line"/>
      <point x="177" y="577" type="line"/>
    </contour>
  </outline>
</glyph>
<glyph name="a" format="1">
  <advance width="526"/>
  <unicode hex="0061"/>
  <outline>
    <contour>
      <point x="489" y="62" type="line"/>
      <point x="477" y="58"/>
      <point x="462" y="54"/>
      <point x="449" y="54" type="curve" smooth="yes"/>
      <point x="424" y="54"/>
      <point x="416" y="70"/>
      <point x="416" y="94" type="curve" smooth="yes"/>
      <point x="416" y="101"/>
      <point x="417" y="108"/>
      <point x="418" y="115" type="curve" smooth="yes"/>
      <point x="474" y="495" type="line"/>
      <point x="430" y="495" type="line"/>
      <point x="409" y="456" type="line"/>
      <point x="382" y="490"/>
      <point x="337" y="503"/>
      <point x="300" y="503" type="curve" smooth="yes"/>
      <point x="141" y="503"/>
      <point x="37" y="322"/>
      <point x="37" y="178" type="curve" smooth="yes"/>
      <point x="37" y="73"/>
      <point x="87" y="-13"/>
      <point x="194" y="-13" type="curve" smooth="yes"/>
      <point x="253" y="-13"/>
      <point x="306" y="19"/>
      <point x="342" y="74" type="curve"/>
      <point x="346" y="74" type="line"/>
      <point x="347" y="26"/>
      <point x="377" y="-11"/>
      <point x="425" y="-11" type="curve" smooth="yes"/>
      <point x="450" y="-11"/>
      <point x="478" y="0"/>
      <point x="500" y="12" type="curve"/>
    </contour>
    <contour>
      <point x="368" y="307" type="line" smooth="yes"/>
      <point x="349" y="177"/>
      <point x="302" y="49"/>
      <point x="210" y="49" type="curve" smooth="yes"/>
      <point x="146" y="49"/>
      <point x="130" y="121"/>
      <point x="130" y="174" type="curve" smooth="yes"/>
      <point x="130" y="272"/>
      <point x="183" y="441"/>
      <point x="303" y="441" type="curve" smooth="yes"/>
      <point x="334" y="441"/>
      <point x="361" y="427"/>
      <point x="382" y="403" type="curve"/>
    </contour>
  </outline>
</glyph>
<glyph name="b" format="1">
  <advance width="501"/>
  <unicode hex="0062"/>
  <outline>
    <contour>
      <point x="463" y="417"/>
      <point x="415" y="503"/>
      <point x="304" y="503" type="curve" smooth="yes"/>
      <point x="248" y="503"/>
      <point x="205" y="475"/>
      <point x="169" y="444" type="curve"/>
      <point x="212" y="764" type="line"/>
      <point x="124" y="764" type="line"/>
      <point x="124" y="707" type="line"/>
      <point x="37" y="33" type="line"/>
      <point x="68" y="2"/>
      <point x="122" y="-13"/>
      <point x="162" y="-13" type="curve" smooth="yes"/>
      <point x="350" y="-13"/>
      <point x="463" y="143"/>
      <point x="463" y="318" type="curve" smooth="yes"/>
    </contour>
    <contour>
      <point x="375" y="212"/>
      <point x="311" y="49"/>
      <point x="183" y="49" type="curve" smooth="yes"/>
      <point x="147" y="49"/>
      <point x="125" y="66"/>
      <point x="125" y="98" type="curve" smooth="yes"/>
      <point x="125" y="101"/>
      <point x="126" y="109"/>
      <point x="126" y="109" type="curve"/>
      <point x="159" y="367" type="line"/>
      <point x="188" y="406"/>
      <point x="242" y="441"/>
      <point x="290" y="441" type="curve" smooth="yes"/>
      <point x="356" y="441"/>
      <point x="375" y="382"/>
      <point x="375" y="322" type="curve" smooth="yes"/>
    </contour>
  </outline>
</glyph>
<glyph name="c" format="1">
  <advance width="421"/>
  <unicode hex="0063"/>
  <outline>
    <contour>
      <point x="430" y="452" type="line"/>
      <point x="393" y="485"/>
      <point x="340" y="503"/>
      <point x="297" y="503" type="curve" smooth="yes"/>
      <point x="133" y="503"/>
      <point x="36" y="356"/>
      <point x="36" y="197" type="curve" smooth="yes"/>
      <point x="36" y="81"/>
      <point x="97" y="-13"/>
      <point x="221" y="-13" type="curve" smooth="yes"/>
      <point x="288" y="-13"/>
      <point x="324" y="3"/>
      <point x="383" y="36" type="curve"/>
      <point x="355" y="100" type="line"/>
      <point x="311" y="70"/>
      <point x="282" y="56"/>
      <point x="234" y="56" type="curve" smooth="yes"/>
      <point x="153" y="56"/>
      <point x="123" y="138"/>
      <point x="123" y="210" type="curve" smooth="yes"/>
      <point x="123" y="300"/>
      <point x="172" y="441"/>
      <point x="279" y="441" type="curve" smooth="yes"/>
      <point x="323" y="441"/>
      <point x="350" y="427"/>
      <point x="380" y="397" type="curve"/>
    </contour>
  </outline>
</glyph>
<glyph name="d" format="1">
  <advance width="526"/>
  <unicode hex="0064"/>
  <outline>
    <contour>
      <point x="509" y="764" type="line"/>
      <point x="422" y="764" type="line"/>
      <point x="422" y="710" type="line"/>
      <point x="422" y="710"/>
      <point x="422" y="708"/>
      <point x="388" y="464" type="curve"/>
      <point x="364" y="491"/>
      <point x="335" y="503"/>
      <point x="299" y="503" type="curve" smooth="yes"/>
      <point x="138" y="503"/>
      <point x="36" y="320"/>
      <point x="36" y="176" type="curve" smooth="yes"/>
      <point x="36" y="75"/>
      <point x="81" y="-13"/>
      <point x="194" y="-13" type="curve" smooth="yes"/>
      <point x="259" y="-13"/>
      <point x="305" y="23"/>
      <point x="341" y="74" type="curve"/>
      <point x="345" y="74" type="line"/>
      <point x="345" y="70" type="line" smooth="yes"/>
      <point x="345" y="25"/>
      <point x="377" y="-11"/>
      <point x="424" y="-11" type="curve" smooth="yes"/>
      <point x="453" y="-11"/>
      <point x="474" y="-1"/>
      <point x="499" y="12" type="curve"/>
      <point x="488" y="62" type="line"/>
      <point x="488" y="62"/>
      <point x="467" y="54"/>
      <point x="448" y="54" type="curve" smooth="yes"/>
      <point x="431" y="54"/>
      <point x="415" y="63"/>
      <point x="415" y="92" type="curve" smooth="yes"/>
      <point x="415" y="95"/>
      <point x="416" y="104"/>
      <point x="416" y="104" type="curve"/>
    </contour>
    <contour>
      <point x="377" y="383" type="line"/>
      <point x="363" y="274"/>
      <point x="335" y="50"/>
      <point x="210" y="50" type="curve" smooth="yes"/>
      <point x="143" y="50"/>
      <point x="128" y="120"/>
      <point x="128" y="173" type="curve" smooth="yes"/>
      <point x="128" y="269"/>
      <point x="183" y="441"/>
      <point x="301" y="441" type="curve" smooth="yes"/>
      <point x="333" y="441"/>
      <point x="359" y="429"/>
      <point x="379" y="404" type="curve"/>
    </contour>
  </outline>
</glyph>
<glyph name="e" format="1">
  <advance width="464"/>
  <unicode hex="0065"/>
  <outline>
    <contour>
      <point x="428" y="473"/>
      <point x="369" y="503"/>
      <point x="300" y="503" type="curve" smooth="yes"/>
      <point x="135" y="503"/>
      <point x="37" y="342"/>
      <point x="37" y="192" type="curve" smooth="yes"/>
      <point x="37" y="72"/>
      <point x="112" y="-13"/>
      <point x="234" y="-13" type="curve" smooth="yes"/>
      <point x="293" y="-13"/>
      <point x="359" y="9"/>
      <point x="407" y="43" type="curve"/>
      <point x="378" y="102" type="line"/>
      <point x="337" y="74"/>
      <point x="289" y="57"/>
      <point x="239" y="57" type="curve" smooth="yes"/>
      <point x="158" y="57"/>
      <point x="122" y="125"/>
      <point x="122" y="197" type="curve" smooth="yes"/>
      <point x="122" y="202" type="line"/>
      <point x="192" y="203"/>
      <point x="268" y="211"/>
      <point x="330" y="248" type="curve" smooth="yes"/>
      <point x="384" y="280"/>
      <point x="428" y="331"/>
      <point x="428" y="397" type="curve" smooth="yes"/>
    </contour>
    <contour>
      <point x="344" y="351"/>
      <point x="305" y="312"/>
      <point x="275" y="293" type="curve" smooth="yes"/>
      <point x="234" y="268"/>
      <point x="175" y="260"/>
      <point x="127" y="260" type="curve"/>
      <point x="134" y="335"/>
      <point x="204" y="441"/>
      <point x="287" y="441" type="curve" smooth="yes"/>
      <point x="320" y="441"/>
      <point x="344" y="424"/>
      <point x="344" y="390" type="curve" smooth="yes"/>
    </contour>
  </outline>
</glyph>
<glyph name="f" format="1">
  <advance width="250"/>
  <unicode hex="0066"/>
  <outline>
    <contour>
      <point x="457" y="731" type="line"/>
      <point x="425" y="753"/>
      <point x="391" y="770"/>
      <point x="337" y="770" type="curve" smooth="yes"/>
      <point x="178" y="770"/>
      <point x="135" y="634"/>
      <point x="118" y="490" type="curve"/>
      <point x="46" y="490" type="line"/>
      <point x="38" y="427" type="line"/>
      <point x="109" y="427" type="line"/>
      <point x="44" y="-52" type="line" smooth="yes"/>
      <point x="33" y="-136"/>
      <point x="-1" y="-166"/>
      <point x="-45" y="-166" type="curve" smooth="yes"/>
      <point x="-78" y="-166"/>
      <point x="-89" y="-159"/>
      <point x="-115" y="-141" type="curve"/>
      <point x="-155" y="-198" type="line"/>
      <point x="-127" y="-216"/>
      <point x="-98" y="-230"/>
      <point x="-43" y="-230" type="curve" smooth="yes"/>
      <point x="47" y="-230"/>
      <point x="106" y="-176"/>
      <point x="122" y="-61" type="curve" smooth="yes"/>
      <point x="189" y="427" type="line"/>
      <point x="301" y="427" type="line"/>
      <point x="309" y="490" type="line"/>
      <point x="197" y="490" type="line"/>
      <point x="209" y="593"/>
      <point x="235" y="707"/>
      <point x="343" y="707" type="curve" smooth="yes"/>
      <point x="371" y="707"/>
      <point x="397" y="694"/>
      <point x="418" y="672" type="curve"/>
    </contour>
  </outline>
</glyph>
<glyph name="g" format="1">
  <advance width="515"/>
  <unicode hex="0067"/>
  <outline>
    <contour>
      <point x="477" y="512" type="line"/>
      <point x="403" y="481" type="line"/>
      <point x="375" y="494"/>
      <point x="345" y="503"/>
      <point x="311" y="503" type="curve" smooth="yes"/>
      <point x="141" y="503"/>
      <point x="39" y="326"/>
      <point x="39" y="176" type="curve" smooth="yes"/>
      <point x="39" y="76"/>
      <point x="88" y="-13"/>
      <point x="197" y="-13" type="curve" smooth="yes"/>
      <point x="254" y="-13"/>
      <point x="301" y="14"/>
      <point x="336" y="75" type="curve"/>
      <point x="339" y="74" type="line"/>
      <point x="320" y="-29"/>
      <point x="279" y="-168"/>
      <point x="159" y="-168" type="curve" smooth="yes"/>
      <point x="127" y="-168"/>
      <point x="87" y="-148"/>
      <point x="59" y="-122" type="curve"/>
      <point x="18" y="-185" type="line"/>
      <point x="70" y="-216"/>
      <point x="112" y="-230"/>
      <point x="168" y="-230" type="curve" smooth="yes"/>
      <point x="351" y="-230"/>
      <point x="399" y="-52"/>
      <point x="419" y="93" type="curve" smooth="yes"/>
    </contour>
    <contour>
      <point x="370" y="315" type="line" smooth="yes"/>
      <point x="341" y="121"/>
      <point x="283" y="49"/>
      <point x="213" y="49" type="curve" smooth="yes"/>
      <point x="151" y="49"/>
      <point x="131" y="116"/>
      <point x="131" y="173" type="curve" smooth="yes"/>
      <point x="131" y="280"/>
      <point x="186" y="441"/>
      <point x="313" y="441" type="curve" smooth="yes"/>
      <point x="338" y="441"/>
      <point x="363" y="435"/>
      <point x="386" y="422" type="curve"/>
    </contour>
  </outline>
</glyph>
<glyph name="h" format="1">
  <advance width="493"/>
  <unicode hex="0068"/>
  <outline>
    <contour>
      <point x="450" y="328" type="line"/>
      <point x="452" y="344"/>
      <point x="453" y="359"/>
      <point x="453" y="373" type="curve" smooth="yes"/>
      <point x="453" y="471"/>
      <point x="399" y="503"/>
      <point x="327" y="503" type="curve" smooth="yes"/>
      <point x="267" y="503"/>
      <point x="213" y="466"/>
      <point x="175" y="428" type="curve"/>
      <point x="222" y="764" type="line"/>
      <point x="134" y="764" type="line"/>
      <point x="134" y="707" type="line"/>
      <point x="39" y="0" type="line"/>
      <point x="119" y="0" type="line"/>
      <point x="168" y="365" type="line"/>
      <point x="179" y="374"/>
      <point x="248" y="431"/>
      <point x="306" y="431" type="curve" smooth="yes"/>
      <point x="358" y="431"/>
      <point x="370" y="395"/>
      <point x="370" y="354" type="curve" smooth="yes"/>
      <point x="370" y="337"/>
      <point x="368" y="318"/>
      <point x="366" y="302" type="curve" smooth="yes"/>
      <point x="326" y="0" type="line"/>
      <point x="417" y="0" type="line"/>
      <point x="415" y="58" type="line"/>
    </contour>
  </outline>
</glyph>
<glyph name="i" format="1">
  <advance width="227"/>
  <unicode hex="0069"/>
  <outline>
    <contour>
      <point x="227" y="695"/>
      <point x="206" y="719"/>
      <point x="176" y="719" type="curve" smooth="yes"/>
      <point x="140" y="719"/>
      <point x="110" y="685"/>
      <point x="110" y="652" type="curve" smooth="yes"/>
      <point x="110" y="624"/>
      <point x="131" y="602"/>
      <point x="161" y="602" type="curve" smooth="yes"/>
      <point x="197" y="602"/>
      <point x="227" y="634"/>
      <point x="227" y="668" type="curve" smooth="yes"/>
    </contour>
    <contour>
      <point x="186" y="490" type="line"/>
      <point x="98" y="490" type="line"/>
      <point x="98" y="433" type="line"/>
      <point x="40" y="0" type="line"/>
      <point x="128" y="0" type="line"/>
      <point x="128" y="58" type="line"/>
    </contour>
  </outline>
</glyph>
<glyph name="j" format="1">
  <advance width="229"/>
  <unicode hex="006A"/>
  <outline>
    <contour>
      <point x="229" y="696"/>
      <point x="208" y="718"/>
      <point x="177" y="718" type="curve" smooth="yes"/>
      <point x="141" y="718"/>
      <point x="112" y="686"/>
      <point x="112" y="652" type="curve" smooth="yes"/>
      <point x="112" y="625"/>
      <point x="132" y="601"/>
      <point x="163" y="601" type="curve" smooth="yes"/>
      <point x="199" y="601"/>
      <point x="229" y="634"/>
      <point x="229" y="668" type="curve" smooth="yes"/>
    </contour>
    <contour>
      <point x="189" y="490" type="line"/>
      <point x="102" y="490" type="line"/>
      <point x="102" y="433" type="line"/>
      <point x="35" y="-52" type="line" smooth="yes"/>
      <point x="24" y="-135"/>
      <point x="-10" y="-166"/>
      <point x="-54" y="-166" type="curve" smooth="yes"/>
      <point x="-88" y="-166"/>
      <point x="-106" y="-155"/>
      <point x="-124" y="-141" type="curve"/>
      <point x="-164" y="-198" type="line"/>
      <point x="-135" y="-216"/>
      <point x="-106" y="-230"/>
      <point x="-51" y="-230" type="curve" smooth="yes"/>
      <point x="39" y="-230"/>
      <point x="98" y="-178"/>
      <point x="114" y="-61" type="curve" smooth="yes"/>
    </contour>
  </outline>
</glyph>
<glyph name="k" format="1">
  <advance width="426"/>
  <unicode hex="006B"/>
  <outline>
    <contour>
      <point x="444" y="490" type="line"/>
      <point x="357" y="490" type="line"/>
      <point x="159" y="293" type="line"/>
      <point x="223" y="764" type="line"/>
      <point x="135" y="764" type="line"/>
      <point x="135" y="707" type="line"/>
      <point x="39" y="0" type="line"/>
      <point x="119" y="0" type="line"/>
      <point x="155" y="267" type="line"/>
      <point x="312" y="0" type="line"/>
      <point x="406" y="0" type="line"/>
      <point x="237" y="286" type="line"/>
    </contour>
  </outline>
</glyph>
<glyph name="l" format="1">
  <advance width="227"/>
  <unicode hex="006C"/>
  <outline>
    <contour>
      <point x="223" y="764" type="line"/>
      <point x="135" y="764" type="line"/>
      <point x="135" y="707" type="line"/>
      <point x="39" y="0" type="line"/>
      <point x="128" y="0" type="line"/>
      <point x="128" y="58" type="line"/>
    </contour>
  </outline>
</glyph>
<glyph name="o" format="1">
  <advance width="508"/>
  <unicode hex="006F"/>
  <outline>
    <contour>
      <point x="472" y="405"/>
      <point x="414" y="503"/>
      <point x="288" y="503" type="curve" smooth="yes"/>
      <point x="127" y="503"/>
      <point x="37" y="348"/>
      <point x="37" y="197" type="curve" smooth="yes"/>
      <point x="37" y="86"/>
      <point x="95" y="-13"/>
      <point x="220" y="-13" type="curve" smooth="yes"/>
      <point x="379" y="-13"/>
      <point x="472" y="143"/>
      <point x="472" y="294" type="curve" smooth="yes"/>
    </contour>
    <contour>
      <point x="387" y="197"/>
      <point x="341" y="49"/>
      <point x="227" y="49" type="curve" smooth="yes"/>
      <point x="150" y="49"/>
      <point x="122" y="135"/>
      <point x="122" y="202" type="curve" smooth="yes"/>
      <point x="122" y="296"/>
      <point x="170" y="441"/>
      <point x="281" y="441" type="curve" smooth="yes"/>
      <point x="361" y="441"/>
      <point x="387" y="362"/>
      <point x="387" y="293" type="curve" smooth="yes"/>
    </contour>
  </outline>
</glyph>
<glyph name="p" format="1">
  <advance width="518"/>
  <unicode hex="0070"/>
  <outline>
    <contour>
      <point x="479" y="413"/>
      <point x="429" y="503"/>
      <point x="321" y="503" type="curve" smooth="yes"/>
      <point x="256" y="503"/>
      <point x="208" y="474"/>
      <point x="174" y="424" type="curve"/>
      <point x="174" y="432" type="line" smooth="yes"/>
      <point x="174" y="454"/>
      <point x="170" y="478"/>
      <point x="166" y="501" type="curve"/>
      <point x="78" y="490" type="line"/>
      <point x="88" y="459"/>
      <point x="92" y="431"/>
      <point x="92" y="405" type="curve" smooth="yes"/>
      <point x="92" y="381"/>
      <point x="89" y="357"/>
      <point x="86" y="333" type="curve" smooth="yes"/>
      <point x="13" y="-224" type="line"/>
      <point x="101" y="-224" type="line"/>
      <point x="101" y="-169" type="line"/>
      <point x="126" y="23" type="line"/>
      <point x="145" y="5"/>
      <point x="186" y="-13"/>
      <point x="223" y="-13" type="curve" smooth="yes"/>
      <point x="378" y="-13"/>
      <point x="479" y="156"/>
      <point x="479" y="308" type="curve" smooth="yes"/>
    </contour>
    <contour>
      <point x="386" y="204"/>
      <point x="334" y="49"/>
      <point x="226" y="49" type="curve" smooth="yes"/>
      <point x="194" y="49"/>
      <point x="154" y="64"/>
      <point x="134" y="88" type="curve"/>
      <point x="137" y="106"/>
      <point x="140" y="142"/>
      <point x="145" y="178" type="curve" smooth="yes"/>
      <point x="157" y="265"/>
      <point x="189" y="441"/>
      <point x="301" y="441" type="curve" smooth="yes"/>
      <point x="370" y="441"/>
      <point x="386" y="369"/>
      <point x="386" y="314" type="curve" smooth="yes"/>
    </contour>
  </outline>
</glyph>
<glyph name="q" format="1">
  <advance width="512"/>
  <unicode hex="0071"/>
  <outline>
    <contour>
      <point x="477" y="522" type="line"/>
      <point x="438" y="522" type="line"/>
      <point x="406" y="460" type="line"/>
      <point x="384" y="480"/>
      <point x="353" y="503"/>
      <point x="299" y="503" type="curve" smooth="yes"/>
      <point x="131" y="503"/>
      <point x="36" y="308"/>
      <point x="36" y="176" type="curve" smooth="yes"/>
      <point x="36" y="75"/>
      <point x="81" y="-13"/>
      <point x="194" y="-13" type="curve" smooth="yes"/>
      <point x="260" y="-13"/>
      <point x="309" y="28"/>
      <point x="337" y="67" type="curve"/>
      <point x="296" y="-224" type="line"/>
      <point x="384" y="-224" type="line"/>
      <point x="384" y="-167" type="line"/>
    </contour>
    <contour>
      <point x="384" y="403"/>
      <point x="381" y="381"/>
      <point x="379" y="368" type="curve" smooth="yes"/>
      <point x="362" y="251"/>
      <point x="329" y="49"/>
      <point x="210" y="49" type="curve" smooth="yes"/>
      <point x="145" y="49"/>
      <point x="128" y="116"/>
      <point x="128" y="173" type="curve" smooth="yes"/>
      <point x="128" y="263"/>
      <point x="180" y="441"/>
      <point x="301" y="441" type="curve" smooth="yes"/>
      <point x="337" y="441"/>
      <point x="366" y="425"/>
      <point x="384" y="403" type="curve"/>
    </contour>
  </outline>
</glyph>
<glyph name="r" format="1">
  <advance width="327"/>
  <unicode hex="0072"/>
  <outline>
    <contour>
      <point x="351" y="502" type="line"/>
      <point x="280" y="502"/>
      <point x="214" y="460"/>
      <point x="175" y="411" type="curve"/>
      <point x="175" y="424" type="line"/>
      <point x="175" y="449"/>
      <point x="173" y="477"/>
      <point x="165" y="502" type="curve"/>
      <point x="73" y="491" type="line"/>
      <point x="87" y="466"/>
      <point x="90" y="427"/>
      <point x="90" y="405" type="curve" smooth="yes"/>
      <point x="90" y="389"/>
      <point x="89" y="374"/>
      <point x="87" y="358" type="curve" smooth="yes"/>
      <point x="41" y="0" type="line"/>
      <point x="124" y="0" type="line"/>
      <point x="167" y="327" type="line"/>
      <point x="206" y="375"/>
      <point x="252" y="414"/>
      <point x="319" y="414" type="curve"/>
    </contour>
  </outline>
</glyph>
<glyph name="s" format="1">
  <advance width="376"/>
  <unicode hex="0073"/>
  <outline>
    <contour>
      <point x="361" y="470" type="line"/>
      <point x="326" y="491"/>
      <point x="284" y="503"/>
      <point x="240" y="503" type="curve" smooth="yes"/>
      <point x="149" y="503"/>
      <point x="59" y="457"/>
      <point x="59" y="354" type="curve" smooth="yes"/>
      <point x="59" y="223"/>
      <point x="248" y="225"/>
      <point x="248" y="130" type="curve" smooth="yes"/>
      <point x="248" y="75"/>
      <point x="198" y="49"/>
      <point x="150" y="49" type="curve" smooth="yes"/>
      <point x="117" y="49"/>
      <point x="78" y="65"/>
      <point x="49" y="89" type="curve"/>
      <point x="6" y="28" type="line"/>
      <point x="50" y="2"/>
      <point x="98" y="-13"/>
      <point x="153" y="-13" type="curve" smooth="yes"/>
      <point x="246" y="-13"/>
      <point x="331" y="39"/>
      <point x="331" y="139" type="curve" smooth="yes"/>
      <point x="331" y="279"/>
      <point x="141" y="282"/>
      <point x="141" y="364" type="curve" smooth="yes"/>
      <point x="141" y="414"/>
      <point x="188" y="441"/>
      <point x="235" y="441" type="curve" smooth="yes"/>
      <point x="268" y="441"/>
      <point x="298" y="431"/>
      <point x="327" y="410" type="curve"/>
    </contour>
  </outline>
</glyph>
<glyph name="t" format="1">
  <advance width="287"/>
  <unicode hex="0074"/>
  <outline>
    <contour>
      <point x="302" y="490" type="line"/>
      <point x="189" y="490" type="line"/>
      <point x="219" y="631" type="line"/>
      <point x="130" y="631" type="line"/>
      <point x="110" y="490" type="line"/>
      <point x="41" y="490" type="line"/>
      <point x="32" y="427" type="line"/>
      <point x="101" y="427" type="line"/>
      <point x="60" y="116" type="line"/>
      <point x="60" y="116"/>
      <point x="57" y="92"/>
      <point x="57" y="81" type="curve" smooth="yes"/>
      <point x="57" y="0"/>
      <point x="104" y="-13"/>
      <point x="152" y="-13" type="curve" smooth="yes"/>
      <point x="195" y="-13"/>
      <point x="248" y="7"/>
      <point x="248" y="7" type="curve"/>
      <point x="241" y="60" type="line"/>
      <point x="213" y="53"/>
      <point x="191" y="49"/>
      <point x="176" y="49" type="curve" smooth="yes"/>
      <point x="147" y="49"/>
      <point x="137" y="64"/>
      <point x="137" y="89" type="curve" smooth="yes"/>
      <point x="137" y="95"/>
      <point x="139" y="110"/>
      <point x="139" y="110" type="curve"/>
      <point x="180" y="427" type="line"/>
      <point x="293" y="427" type="line"/>
    </contour>
  </outline>
</glyph>
<glyph name="u" format="1">
  <advance width="510"/>
  <unicode hex="0075"/>
  <outline>
    <contour>
      <point x="472" y="63" type="line"/>
      <point x="472" y="63"/>
      <point x="451" y="53"/>
      <point x="431" y="53" type="curve" smooth="yes"/>
      <point x="415" y="53"/>
      <point x="403" y="63"/>
      <point x="403" y="95" type="curve" smooth="yes"/>
      <point x="403" y="102"/>
      <point x="404" y="111"/>
      <point x="405" y="121" type="curve" smooth="yes"/>
      <point x="456" y="490" type="line"/>
      <point x="368" y="490" type="line"/>
      <point x="368" y="432" type="line"/>
      <point x="346" y="279" type="line" smooth="yes"/>
      <point x="320" y="95"/>
      <point x="243" y="49"/>
      <point x="189" y="49" type="curve" smooth="yes"/>
      <point x="145" y="49"/>
      <point x="122" y="73"/>
      <point x="122" y="130" type="curve" smooth="yes"/>
      <point x="122" y="142"/>
      <point x="123" y="156"/>
      <point x="125" y="171" type="curve" smooth="yes"/>
      <point x="168" y="490" type="line"/>
      <point x="81" y="490" type="line"/>
      <point x="81" y="433" type="line"/>
      <point x="43" y="159" type="line" smooth="yes"/>
      <point x="41" y="145"/>
      <point x="40" y="132"/>
      <point x="40" y="119" type="curve" smooth="yes"/>
      <point x="40" y="40"/>
      <point x="79" y="-13"/>
      <point x="168" y="-13" type="curve" smooth="yes"/>
      <point x="271" y="-13"/>
      <point x="311" y="52"/>
      <point x="325" y="73" type="curve"/>
      <point x="329" y="73" type="line"/>
      <point x="329" y="14"/>
      <point x="374" y="-12"/>
      <point x="408" y="-12" type="curve" smooth="yes"/>
      <point x="439" y="-12"/>
      <point x="483" y="11"/>
      <point x="483" y="11" type="curve"/>
    </contour>
  </outline>
</glyph>
<glyph name="v" format="1">
  <advance width="418"/>
  <unicode hex="0076"/>
  <outline>
    <contour>
      <point x="451" y="490" type="line"/>
      <point x="376" y="490" type="line"/>
      <point x="201" y="117" type="line"/>
      <point x="126" y="490" type="line"/>
      <point x="42" y="490" type="line"/>
      <point x="143" y="-5" type="line"/>
      <point x="216" y="-5" type="line"/>
    </contour>
  </outline>
</glyph>
<glyph name="w" format="1">
  <advance width="610"/>
  <unicode hex="0077"/>
  <outline>
    <contour>
      <point x="643" y="490" type="line"/>
      <point x="572" y="490" type="line"/>
      <point x="428" y="156" type="line"/>
      <point x="377" y="490" type="line"/>
      <point x="319" y="490" type="line"/>
      <point x="174" y="156" type="line"/>
      <point x="124" y="490" type="line"/>
      <point x="42" y="490" type="line"/>
      <point x="115" y="-5" type="line"/>
      <point x="173" y="-5" type="line"/>
      <point x="320" y="332" type="line"/>
      <point x="370" y="-5" type="line"/>
      <point x="428" y="-5" type="line"/>
    </contour>
  </outline>
</glyph>
<glyph name="y" format="1">
  <advance width="409"/>
  <unicode hex="0079"/>
  <outline>
    <contour>
      <point x="451" y="490" type="line"/>
      <point x="375" y="490" type="line"/>
      <point x="203" y="118" type="line"/>
      <point x="130" y="490" type="line"/>
      <point x="45" y="490" type="line"/>
      <point x="149" y="3" type="line"/>
      <point x="135" y="-30" type="line" smooth="yes"/>
      <point x="97" y="-119"/>
      <point x="33" y="-164"/>
      <point x="-41" y="-164" type="curve" smooth="yes"/>
      <point x="-73" y="-164"/>
      <point x="-86" y="-156"/>
      <point x="-114" y="-143" type="curve"/>
      <point x="-152" y="-203" type="line"/>
      <point x="-125" y="-219"/>
      <point x="-85" y="-230"/>
      <point x="-46" y="-230" type="curve" smooth="yes"/>
      <point x="74" y="-230"/>
      <point x="155" y="-155"/>
      <point x="203" y="-51" type="curve" smooth="yes"/>
    </contour>
  </outline>
</glyph>
<glyph name="z" format="1">
  <advance width="433"/>
  <unicode hex="007A"/>
  <outline>
    <contour>
      <point x="423" y="443" type="line"/>
      <point x="423" y="490" type="line"/>
      <point x="100" y="490" type="line"/>
      <point x="91" y="427" type="line"/>
      <point x="313" y="427" type="line"/>
      <point x="18" y="48" type="line"/>
      <point x="18" y="0" type="line"/>
      <point x="372" y="0" type="line"/>
      <point x="382" y="63" type="line"/>
      <point x="126" y="63" type="line"/>
    </contour>
  </outline>
</glyph>
<glyph name="braceleft" format="1">
  <advance width="321"/>
  <unicode hex="007B"/>
  <outline>
    <contour>
      <point x="350" y="730" type="line"/>
      <point x="225" y="730"/>
      <point x="180" y="673"/>
      <point x="165" y="568" type="curve" smooth="yes"/>
      <point x="142" y="412" type="line" smooth="yes"/>
      <point x="135" y="368"/>
      <point x="118" y="321"/>
      <point x="69" y="320" type="curve"/>
      <point x="62" y="274" type="line"/>
      <point x="105" y="274"/>
      <point x="113" y="239"/>
      <point x="113" y="211" type="curve" smooth="yes"/>
      <point x="113" y="196"/>
      <point x="111" y="184"/>
      <point x="110" y="179" type="curve" smooth="yes"/>
      <point x="88" y="26" type="line" smooth="yes"/>
      <point x="84" y="1"/>
      <point x="84" y="-8"/>
      <point x="84" y="-17" type="curve" smooth="yes"/>
      <point x="84" y="-96"/>
      <point x="119" y="-137"/>
      <point x="227" y="-137" type="curve"/>
      <point x="234" y="-90" type="line"/>
      <point x="182" y="-90"/>
      <point x="160" y="-76"/>
      <point x="160" y="-31" type="curve" smooth="yes"/>
      <point x="160" y="-21"/>
      <point x="161" y="-11"/>
      <point x="163" y="1" type="curve" smooth="yes"/>
      <point x="186" y="166" type="line" smooth="yes"/>
      <point x="188" y="182"/>
      <point x="189" y="197"/>
      <point x="189" y="209" type="curve" smooth="yes"/>
      <point x="189" y="266"/>
      <point x="167" y="285"/>
      <point x="142" y="296" type="curve"/>
      <point x="176" y="308"/>
      <point x="210" y="334"/>
      <point x="223" y="426" type="curve" smooth="yes"/>
      <point x="246" y="591" type="line" smooth="yes"/>
      <point x="255" y="657"/>
      <point x="271" y="683"/>
      <point x="343" y="683" type="curve"/>
    </contour>
  </outline>
</glyph>
<glyph name="bar" format="1">
  <advance width="236"/>
  <unicode hex="007C"/>
  <outline>
    <contour>
      <point x="152" y="-109" type="line"/>
      <point x="152" y="742" type="line"/>
      <point x="84" y="742" type="line"/>
      <point x="84" y="-109" type="line"/>
    </contour>
  </outline>
</glyph>
<glyph name="braceright" format="1">
  <advance width="321"/>
  <unicode hex="007D"/>
  <outline>
    <contour>
      <point x="121" y="734" type="line"/>
      <point x="115" y="688" type="line"/>
      <point x="170" y="688"/>
      <point x="192" y="679"/>
      <point x="192" y="631" type="curve" smooth="yes"/>
      <point x="192" y="624"/>
      <point x="191" y="616"/>
      <point x="190" y="606" type="curve" smooth="yes"/>
      <point x="167" y="429" type="line" smooth="yes"/>
      <point x="165" y="415"/>
      <point x="163" y="400"/>
      <point x="163" y="386" type="curve" smooth="yes"/>
      <point x="163" y="348"/>
      <point x="174" y="315"/>
      <point x="213" y="300" type="curve"/>
      <point x="156" y="278"/>
      <point x="136" y="222"/>
      <point x="129" y="168" type="curve" smooth="yes"/>
      <point x="107" y="-2" type="line" smooth="yes"/>
      <point x="98" y="-74"/>
      <point x="80" y="-91"/>
      <point x="8" y="-91" type="curve"/>
      <point x="2" y="-137" type="line"/>
      <point x="23" y="-137" type="line" smooth="yes"/>
      <point x="129" y="-137"/>
      <point x="174" y="-76"/>
      <point x="189" y="26" type="curve" smooth="yes"/>
      <point x="211" y="179" type="line" smooth="yes"/>
      <point x="217" y="223"/>
      <point x="231" y="275"/>
      <point x="286" y="275" type="curve"/>
      <point x="292" y="322" type="line"/>
      <point x="254" y="322"/>
      <point x="240" y="351"/>
      <point x="240" y="385" type="curve" smooth="yes"/>
      <point x="240" y="392"/>
      <point x="241" y="400"/>
      <point x="242" y="407" type="curve" smooth="yes"/>
      <point x="265" y="571" type="line" smooth="yes"/>
      <point x="267" y="586"/>
      <point x="268" y="600"/>
      <point x="268" y="612" type="curve" smooth="yes"/>
      <point x="268" y="690"/>
      <point x="233" y="734"/>
      <point x="145" y="734" type="curve" smooth="yes"/>
    </contour>
  </outline>
</glyph>
<glyph name="asciitilde" format="1">
  <advance width="559"/>
  <unicode hex="007E"/>
  <outline>
    <contour>
      <point x="466" y="343" type="line"/>
      <point x="449" y="312"/>
      <point x="417" y="277"/>
      <point x="380" y="277" type="curve" smooth="yes"/>
      <point x="327" y="277"/>
      <point x="258" y="343"/>
      <point x="175" y="343" type="curve" smooth="yes"/>
      <point x="118" y="343"/>
      <point x="67" y="297"/>
      <point x="44" y="247" type="curve"/>
      <point x="96" y="203" type="line"/>
      <point x="110" y="234"/>
      <point x="139" y="271"/>
      <point x="175" y="271" type="curve" smooth="yes"/>
      <point x="248" y="271"/>
      <point x="304" y="204"/>
      <point x="380" y="204" type="curve" smooth="yes"/>
      <point x="433" y="204"/>
      <point x="488" y="254"/>
      <point x="515" y="297" type="curve"/>
    </contour>
  </outline>
</glyph>
<glyph name="exclamdown" format="1">
  <advance width="245"/>
  <unicode hex="00A1"/>
  <outline>
    <contour>
      <point x="98" y="401"/>
      <point x="128" y="371"/>
      <point x="164" y="371" type="curve" smooth="yes"/>
      <point x="201" y="371"/>
      <point x="230" y="400"/>
      <point x="230" y="437" type="curve" smooth="yes"/>
      <point x="230" y="473"/>
      <point x="200" y="503"/>
      <point x="164" y="503" type="curve" smooth="yes"/>
      <point x="128" y="503"/>
      <point x="98" y="473"/>
      <point x="98" y="437" type="curve" smooth="yes"/>
    </contour>
    <contour>
      <point x="21" y="-177" type="line"/>
      <point x="21" y="-177"/>
      <point x="20" y="-184"/>
      <point x="20" y="-187" type="curve" smooth="yes"/>
      <point x="20" y="-218"/>
      <point x="50" y="-235"/>
      <point x="79" y="-235" type="curve" smooth="yes"/>
      <point x="106" y="-235"/>
      <point x="131" y="-218"/>
      <point x="133" y="-193" type="curve" smooth="yes"/>
      <point x="170" y="274" type="line"/>
      <point x="112" y="283" type="line"/>
    </contour>
  </outline>
</glyph>
<glyph name="cent" format="1">
  <advance width="421"/>
  <unicode hex="00A2"/>
  <outline>
    <contour>
      <point x="430" y="454" type="line"/>
      <point x="401" y="480"/>
      <point x="365" y="495"/>
      <point x="330" y="502" type="curve"/>
      <point x="366" y="615" type="line"/>
      <point x="288" y="615" type="line"/>
      <point x="266" y="504" type="line"/>
      <point x="121" y="486"/>
      <point x="36" y="347"/>
      <point x="36" y="197" type="curve" smooth="yes"/>
      <point x="36" y="100"/>
      <point x="82" y="19"/>
      <point x="167" y="-6" type="curve"/>
      <point x="131" y="-122" type="line"/>
      <point x="209" y="-122" type="line"/>
      <point x="229" y="-13" type="line"/>
      <point x="291" y="-13"/>
      <point x="326" y="3"/>
      <point x="383" y="35" type="curve"/>
      <point x="355" y="100" type="line"/>
      <point x="311" y="70"/>
      <point x="282" y="55"/>
      <point x="234" y="55" type="curve" smooth="yes"/>
      <point x="158" y="55"/>
      <point x="123" y="138"/>
      <point x="123" y="210" type="curve" smooth="yes"/>
      <point x="123" y="225"/>
      <point x="124" y="240"/>
      <point x="126" y="254" type="curve" smooth="yes"/>
      <point x="137" y="337"/>
      <point x="190" y="441"/>
      <point x="279" y="441" type="curve" smooth="yes"/>
      <point x="323" y="441"/>
      <point x="350" y="426"/>
      <point x="380" y="397" type="curve"/>
    </contour>
  </outline>
</glyph>
<glyph name="sterling" format="1">
  <advance width="514"/>
  <unicode hex="00A3"/>
  <outline>
    <contour>
      <point x="547" y="634" type="line"/>
      <point x="520" y="696"/>
      <point x="463" y="732"/>
      <point x="393" y="732" type="curve" smooth="yes"/>
      <point x="289" y="732"/>
      <point x="195" y="671"/>
      <point x="178" y="540" type="curve" smooth="yes"/>
      <point x="163" y="423" type="line"/>
      <point x="90" y="423" type="line"/>
      <point x="80" y="355" type="line"/>
      <point x="153" y="355" type="line"/>
      <point x="115" y="67" type="line"/>
      <point x="26" y="67" type="line"/>
      <point x="16" y="-2" type="line"/>
      <point x="472" y="-2" type="line"/>
      <point x="482" y="67" type="line"/>
      <point x="204" y="67" type="line"/>
      <point x="242" y="355" type="line"/>
      <point x="365" y="355" type="line"/>
      <point x="375" y="423" type="line"/>
      <point x="252" y="423" type="line"/>
      <point x="267" y="541" type="line" smooth="yes"/>
      <point x="277" y="622"/>
      <point x="330" y="663"/>
      <point x="385" y="663" type="curve" smooth="yes"/>
      <point x="423" y="663"/>
      <point x="455" y="637"/>
      <point x="470" y="592" type="curve"/>
    </contour>
  </outline>
</glyph>
<glyph name="yen" format="1">
  <advance width="468"/>
  <unicode hex="00A5"/>
  <outline>
    <contour>
      <point x="466" y="490" type="line"/>
      <point x="392" y="490" type="line"/>
      <point x="250" y="304" type="line"/>
      <point x="149" y="490" type="line"/>
      <point x="64" y="490" type="line"/>
      <point x="156" y="314" type="line"/>
      <point x="65" y="314" type="line"/>
      <point x="58" y="268" type="line"/>
      <point x="181" y="268" type="line"/>
      <point x="194" y="243" type="line"/>
      <point x="190" y="207" type="line"/>
      <point x="51" y="207" type="line"/>
      <point x="44" y="161" type="line"/>
      <point x="183" y="161" type="line"/>
      <point x="161" y="0" type="line"/>
      <point x="238" y="0" type="line"/>
      <point x="260" y="161" type="line"/>
      <point x="401" y="161" type="line"/>
      <point x="408" y="207" type="line"/>
      <point x="267" y="207" type="line"/>
      <point x="272" y="242" type="line"/>
      <point x="292" y="268" type="line"/>
      <point x="415" y="268" type="line"/>
      <point x="422" y="314" type="line"/>
      <point x="329" y="314" type="line"/>
    </contour>
  </outline>
</glyph>
<glyph name="brokenbar" format="1">
  <advance width="238"/>
  <unicode hex="00A6"/>
  <outline>
    <contour>
      <point x="152" y="393" type="line"/>
      <point x="152" y="742" type="line"/>
      <point x="84" y="742" type="line"/>
      <point x="84" y="393" type="line"/>
    </contour>
    <contour>
      <point x="152" y="-115" type="line"/>
      <point x="152" y="233" type="line"/>
      <point x="84" y="233" type="line"/>
      <point x="84" y="-115" type="line"/>
    </contour>
  </outline>
</glyph>
<glyph name="section" format="1">
  <advance width="454"/>
  <unicode hex="00A7"/>
  <outline>
    <contour>
      <point x="460" y="758" type="line"/>
      <point x="460" y="758"/>
      <point x="414" y="773"/>
      <point x="387" y="773" type="curve" smooth="yes"/>
      <point x="309" y="773"/>
      <point x="241" y="729"/>
      <point x="229" y="641" type="curve"/>
      <point x="147" y="631"/>
      <point x="103" y="570"/>
      <point x="103" y="458" type="curve" smooth="yes"/>
      <point x="103" y="363"/>
      <point x="140" y="22"/>
      <point x="140" y="-60" type="curve" smooth="yes"/>
      <point x="140" y="-141"/>
      <point x="104" y="-169"/>
      <point x="56" y="-169" type="curve" smooth="yes"/>
      <point x="45" y="-169"/>
      <point x="14" y="-158"/>
      <point x="9" y="-157" type="curve"/>
      <point x="-15" y="-218" type="line"/>
      <point x="-11" y="-220"/>
      <point x="18" y="-233"/>
      <point x="56" y="-233" type="curve" smooth="yes"/>
      <point x="123" y="-233"/>
      <point x="198" y="-199"/>
      <point x="214" y="-101" type="curve"/>
      <point x="317" y="-84"/>
      <point x="341" y="14"/>
      <point x="341" y="79" type="curve" smooth="yes"/>
      <point x="341" y="145"/>
      <point x="303" y="489"/>
      <point x="303" y="597" type="curve" smooth="yes"/>
      <point x="303" y="702"/>
      <point x="367" y="705"/>
      <point x="387" y="705" type="curve" smooth="yes"/>
      <point x="407" y="705"/>
      <point x="430" y="694"/>
      <point x="435" y="692" type="curve"/>
    </contour>
    <contour>
      <point x="262" y="11"/>
      <point x="242" y="-17"/>
      <point x="217" y="-29" type="curve"/>
      <point x="212" y="114"/>
      <point x="180" y="403"/>
      <point x="180" y="465" type="curve" smooth="yes"/>
      <point x="180" y="517"/>
      <point x="194" y="555"/>
      <point x="227" y="569" type="curve"/>
      <point x="233" y="436"/>
      <point x="262" y="163"/>
      <point x="262" y="73" type="curve" smooth="yes"/>
    </contour>
  </outline>
</glyph>
<glyph name="dieresis" format="1">
  <advance width="278"/>
  <unicode hex="00A8"/>
  <outline>
    <contour>
      <point x="278" y="656"/>
      <point x="253" y="681"/>
      <point x="221" y="681" type="curve" smooth="yes"/>
      <point x="190" y="681"/>
      <point x="164" y="655"/>
      <point x="164" y="624" type="curve" smooth="yes"/>
      <point x="164" y="593"/>
      <point x="190" y="567"/>
      <point x="221" y="567" type="curve" smooth="yes"/>
      <point x="252" y="567"/>
      <point x="278" y="593"/>
      <point x="278" y="624" type="curve" smooth="yes"/>
    </contour>
    <contour>
      <point x="115" y="656"/>
      <point x="90" y="681"/>
      <point x="58" y="681" type="curve" smooth="yes"/>
      <point x="27" y="681"/>
      <point x="1" y="655"/>
      <point x="1" y="624" type="curve" smooth="yes"/>
      <point x="1" y="593"/>
      <point x="27" y="567"/>
      <point x="58" y="567" type="curve" smooth="yes"/>
      <point x="89" y="567"/>
      <point x="115" y="593"/>
      <point x="115" y="624" type="curve" smooth="yes"/>
    </contour>
  </outline>
</glyph>
<glyph name="ordfeminine" format="1">
  <advance width="363"/>
  <unicode hex="00AA"/>
  <outline>
    <contour>
      <point x="326" y="434" type="line"/>
      <point x="318" y="431"/>
      <point x="309" y="429"/>
      <point x="300" y="429" type="curve" smooth="yes"/>
      <point x="284" y="429"/>
      <point x="279" y="439"/>
      <point x="279" y="455" type="curve" smooth="yes"/>
      <point x="279" y="459"/>
      <point x="279" y="464"/>
      <point x="280" y="468" type="curve" smooth="yes"/>
      <point x="316" y="716" type="line"/>
      <point x="288" y="716" type="line"/>
      <point x="274" y="691" type="line"/>
      <point x="257" y="713"/>
      <point x="227" y="721"/>
      <point x="203" y="721" type="curve" smooth="yes"/>
      <point x="99" y="721"/>
      <point x="32" y="603"/>
      <point x="32" y="509" type="curve" smooth="yes"/>
      <point x="32" y="441"/>
      <point x="64" y="385"/>
      <point x="134" y="385" type="curve" smooth="yes"/>
      <point x="172" y="385"/>
      <point x="207" y="406"/>
      <point x="230" y="442" type="curve"/>
      <point x="233" y="410"/>
      <point x="254" y="386"/>
      <point x="285" y="386" type="curve" smooth="yes"/>
      <point x="301" y="386"/>
      <point x="319" y="394"/>
      <point x="333" y="401" type="curve"/>
    </contour>
    <contour>
      <point x="272" y="331" type="line"/>
      <point x="64" y="331" type="line"/>
      <point x="55" y="277" type="line"/>
      <point x="264" y="277" type="line"/>
    </contour>
    <contour>
      <point x="247" y="594" type="line"/>
      <point x="233" y="509"/>
      <point x="205" y="425"/>
      <point x="144" y="425" type="curve" smooth="yes"/>
      <point x="103" y="425"/>
      <point x="92" y="472"/>
      <point x="92" y="507" type="curve" smooth="yes"/>
      <point x="92" y="571"/>
      <point x="127" y="681"/>
      <point x="205" y="681" type="curve" smooth="yes"/>
      <point x="225" y="681"/>
      <point x="243" y="672"/>
      <point x="257" y="656" type="curve"/>
    </contour>
  </outline>
</glyph>
<glyph name="guillemotleft" format="1">
  <advance width="454"/>
  <unicode hex="00AB"/>
  <outline>
    <contour>
      <point x="422" y="482" type="line"/>
      <point x="360" y="493" type="line"/>
      <point x="193" y="332" type="line"/>
      <point x="320" y="172" type="line"/>
      <point x="380" y="181" type="line"/>
      <point x="283" y="331" type="line"/>
    </contour>
    <contour>
      <point x="272" y="482" type="line"/>
      <point x="212" y="493" type="line"/>
      <point x="45" y="332" type="line"/>
      <point x="172" y="172" type="line"/>
      <point x="231" y="181" type="line"/>
      <point x="135" y="331" type="line"/>
    </contour>
  </outline>
</glyph>
<glyph name="registered" format="1">
  <advance width="459"/>
  <unicode hex="00AE"/>
  <outline>
    <contour>
      <point x="430" y="713"/>
      <point x="340" y="801"/>
      <point x="231" y="801" type="curve" smooth="yes"/>
      <point x="121" y="801"/>
      <point x="33" y="713"/>
      <point x="33" y="603" type="curve" smooth="yes"/>
      <point x="33" y="493"/>
      <point x="121" y="405"/>
      <point x="231" y="405" type="curve" smooth="yes"/>
      <point x="340" y="405"/>
      <point x="430" y="493"/>
      <point x="430" y="603" type="curve" smooth="yes"/>
    </contour>
    <contour>
      <point x="397" y="512"/>
      <point x="322" y="438"/>
      <point x="231" y="438" type="curve" smooth="yes"/>
      <point x="140" y="438"/>
      <point x="66" y="512"/>
      <point x="66" y="603" type="curve" smooth="yes"/>
      <point x="66" y="694"/>
      <point x="140" y="768"/>
      <point x="231" y="768" type="curve" smooth="yes"/>
      <point x="322" y="768"/>
      <point x="397" y="694"/>
      <point x="397" y="603" type="curve" smooth="yes"/>
    </contour>
    <contour>
      <point x="343" y="492" type="line"/>
      <point x="270" y="596" type="line"/>
      <point x="295" y="605"/>
      <point x="316" y="625"/>
      <point x="316" y="653" type="curve" smooth="yes"/>
      <point x="316" y="704"/>
      <point x="280" y="717"/>
      <point x="238" y="717" type="curve" smooth="yes"/>
      <point x="150" y="717" type="line"/>
      <point x="150" y="492" type="line"/>
      <point x="200" y="492" type="line"/>
      <point x="200" y="588" type="line"/>
      <point x="218" y="588" type="line"/>
      <point x="283" y="492" type="line"/>
    </contour>
    <contour>
      <point x="200" y="625" type="line"/>
      <point x="200" y="680" type="line"/>
      <point x="231" y="680" type="line" smooth="yes"/>
      <point x="250" y="680"/>
      <point x="266" y="672"/>
      <point x="266" y="655" type="curve" smooth="yes"/>
      <point x="266" y="632"/>
      <point x="249" y="625"/>
      <point x="224" y="625" type="curve" smooth="yes"/>
    </contour>
  </outline>
</glyph>
<glyph name="macron" format="1">
  <advance width="276"/>
  <unicode hex="00AF"/>
  <outline>
    <contour>
      <point x="282" y="598" type="line"/>
      <point x="282" y="657" type="line"/>
      <point x="-8" y="657" type="line"/>
      <point x="-8" y="598" type="line"/>
    </contour>
  </outline>
</glyph>
<glyph name="degree" format="1">
  <advance width="342"/>
  <unicode hex="00B0"/>
  <outline>
    <contour>
      <point x="322" y="676"/>
      <point x="254" y="743"/>
      <point x="170" y="743" type="curve" smooth="yes"/>
      <point x="87" y="743"/>
      <point x="20" y="676"/>
      <point x="20" y="593" type="curve" smooth="yes"/>
      <point x="20" y="509"/>
      <point x="88" y="443"/>
      <point x="171" y="443" type="curve" smooth="yes"/>
      <point x="255" y="443"/>
      <point x="322" y="509"/>
      <point x="322" y="593" type="curve" smooth="yes"/>
    </contour>
    <contour>
      <point x="259" y="542"/>
      <point x="218" y="503"/>
      <point x="170" y="503" type="curve" smooth="yes"/>
      <point x="122" y="503"/>
      <point x="83" y="542"/>
      <point x="83" y="593" type="curve" smooth="yes"/>
      <point x="83" y="643"/>
      <point x="123" y="683"/>
      <point x="171" y="683" type="curve" smooth="yes"/>
      <point x="219" y="683"/>
      <point x="259" y="643"/>
      <point x="259" y="593" type="curve" smooth="yes"/>
    </contour>
  </outline>
</glyph>
<glyph name="plusminus" format="1">
  <advance width="632"/>
  <unicode hex="00B1"/>
  <outline>
    <contour>
      <point x="567" y="251" type="line"/>
      <point x="567" y="320" type="line"/>
      <point x="352" y="320" type="line"/>
      <point x="352" y="490" type="line"/>
      <point x="282" y="490" type="line"/>
      <point x="282" y="320" type="line"/>
      <point x="68" y="320" type="line"/>
      <point x="68" y="251" type="line"/>
      <point x="282" y="251" type="line"/>
      <point x="282" y="80" type="line"/>
      <point x="352" y="80" type="line"/>
      <point x="352" y="251" type="line"/>
    </contour>
    <contour>
      <point x="567" y="0" type="line"/>
      <point x="567" y="68" type="line"/>
      <point x="68" y="68" type="line"/>
      <point x="68" y="0" type="line"/>
    </contour>
  </outline>
</glyph>
<glyph name="uni00B2" format="1">
  <advance width="457"/>
  <unicode hex="00B2"/>
  <outline>
    <contour>
      <point x="344" y="434" type="line"/>
      <point x="371" y="502" type="line"/>
      <point x="149" y="502" type="line"/>
      <point x="149" y="502"/>
      <point x="401" y="665"/>
      <point x="401" y="822" type="curve" smooth="yes"/>
      <point x="401" y="875"/>
      <point x="370" y="928"/>
      <point x="278" y="928" type="curve" smooth="yes"/>
      <point x="174" y="928"/>
      <point x="104" y="864"/>
      <point x="104" y="864" type="curve"/>
      <point x="129" y="817" type="line"/>
      <point x="129" y="817"/>
      <point x="191" y="870"/>
      <point x="255" y="870" type="curve" smooth="yes"/>
      <point x="298" y="870"/>
      <point x="322" y="844"/>
      <point x="322" y="807" type="curve" smooth="yes"/>
      <point x="322" y="689"/>
      <point x="76" y="501"/>
      <point x="41" y="475" type="curve" smooth="yes"/>
      <point x="38" y="472" type="line"/>
      <point x="38" y="434" type="line"/>
    </contour>
  </outline>
</glyph>
<glyph name="uni00B3" format="1">
  <advance width="457"/>
  <unicode hex="00B3"/>
  <outline>
    <contour>
      <point x="46" y="423" type="line"/>
      <point x="314" y="433"/>
      <point x="377" y="558"/>
      <point x="377" y="630" type="curve" smooth="yes"/>
      <point x="377" y="687"/>
      <point x="335" y="721"/>
      <point x="281" y="728" type="curve"/>
      <point x="327" y="746"/>
      <point x="386" y="785"/>
      <point x="386" y="852" type="curve" smooth="yes"/>
      <point x="386" y="910"/>
      <point x="329" y="928"/>
      <point x="276" y="928" type="curve" smooth="yes"/>
      <point x="220" y="928"/>
      <point x="147" y="902"/>
      <point x="99" y="866" type="curve"/>
      <point x="124" y="820" type="line"/>
      <point x="156" y="845"/>
      <point x="210" y="870"/>
      <point x="250" y="870" type="curve" smooth="yes"/>
      <point x="287" y="870"/>
      <point x="311" y="856"/>
      <point x="311" y="830" type="curve" smooth="yes"/>
      <point x="311" y="763"/>
      <point x="221" y="735"/>
      <point x="166" y="724" type="curve"/>
      <point x="166" y="677" type="line"/>
      <point x="167" y="677"/>
      <point x="183" y="679"/>
      <point x="201" y="679" type="curve" smooth="yes"/>
      <point x="246" y="679"/>
      <point x="300" y="672"/>
      <point x="300" y="618" type="curve" smooth="yes"/>
      <point x="300" y="540"/>
      <point x="206" y="482"/>
      <point x="43" y="474" type="curve"/>
    </contour>
  </outline>
</glyph>
<glyph name="acute" format="1">
  <advance width="235"/>
  <unicode hex="00B4"/>
  <outline>
    <contour>
      <point x="274" y="724" type="line"/>
      <point x="145" y="724" type="line"/>
      <point x="45" y="577" type="line"/>
      <point x="119" y="577" type="line"/>
    </contour>
  </outline>
</glyph>
<glyph name="mu" format="1">
  <advance width="584"/>
  <unicode hex="00B5"/>
  <outline>
    <contour>
      <point x="511" y="490" type="line"/>
      <point x="419" y="490" type="line"/>
      <point x="423" y="433" type="line"/>
      <point x="382" y="127" type="line"/>
      <point x="371" y="116"/>
      <point x="305" y="61"/>
      <point x="244" y="61" type="curve" smooth="yes"/>
      <point x="192" y="61"/>
      <point x="179" y="98"/>
      <point x="179" y="141" type="curve" smooth="yes"/>
      <point x="179" y="157"/>
      <point x="181" y="173"/>
      <point x="183" y="189" type="curve" smooth="yes"/>
      <point x="224" y="490" type="line"/>
      <point x="132" y="490" type="line"/>
      <point x="136" y="433" type="line"/>
      <point x="53" y="-186" type="line"/>
      <point x="135" y="-186" type="line"/>
      <point x="161" y="1" type="line"/>
      <point x="180" y="-8"/>
      <point x="201" y="-13"/>
      <point x="222" y="-13" type="curve" smooth="yes"/>
      <point x="280" y="-13"/>
      <point x="347" y="32"/>
      <point x="376" y="58" type="curve"/>
      <point x="376" y="52" type="line" smooth="yes"/>
      <point x="376" y="17"/>
      <point x="391" y="-12"/>
      <point x="426" y="-12" type="curve" smooth="yes"/>
      <point x="466" y="-12"/>
      <point x="526" y="20"/>
      <point x="526" y="20" type="curve"/>
      <point x="516" y="71" type="line"/>
      <point x="516" y="71"/>
      <point x="486" y="59"/>
      <point x="466" y="59" type="curve" smooth="yes"/>
      <point x="460" y="59"/>
      <point x="455" y="61"/>
      <point x="455" y="70" type="curve"/>
    </contour>
  </outline>
</glyph>
<glyph name="periodcentered" format="1">
  <advance width="285"/>
  <unicode hex="00B7"/>
  <outline>
    <contour>
      <point x="214" y="293"/>
      <point x="184" y="322"/>
      <point x="147" y="322" type="curve" smooth="yes"/>
      <point x="111" y="322"/>
      <point x="82" y="292"/>
      <point x="82" y="256" type="curve" smooth="yes"/>
      <point x="82" y="219"/>
      <point x="111" y="189"/>
      <point x="148" y="189" type="curve" smooth="yes"/>
      <point x="184" y="189"/>
      <point x="214" y="219"/>
      <point x="214" y="256" type="curve" smooth="yes"/>
    </contour>
  </outline>
</glyph>
<glyph name="cedilla" format="1">
  <advance width="229"/>
  <unicode hex="00B8"/>
  <outline>
    <contour>
      <point x="209" y="-69"/>
      <point x="167" y="-51"/>
      <point x="151" y="-46" type="curve"/>
      <point x="181" y="8" type="line"/>
      <point x="136" y="8" type="line"/>
      <point x="90" y="-71" type="line"/>
      <point x="113" y="-79"/>
      <point x="137" y="-93"/>
      <point x="137" y="-119" type="curve" smooth="yes"/>
      <point x="137" y="-171"/>
      <point x="71" y="-185"/>
      <point x="65" y="-186" type="curve"/>
      <point x="72" y="-218" type="line"/>
      <point x="102" y="-213"/>
      <point x="129" y="-207"/>
      <point x="154" y="-194" type="curve" smooth="yes"/>
      <point x="183" y="-180"/>
      <point x="209" y="-156"/>
      <point x="209" y="-117" type="curve" smooth="yes"/>
    </contour>
  </outline>
</glyph>
<glyph name="uni00B9" format="1">
  <advance width="457"/>
  <unicode hex="00B9"/>
  <outline>
    <contour>
      <point x="353" y="434" type="line"/>
      <point x="361" y="493" type="line"/>
      <point x="266" y="493" type="line"/>
      <point x="323" y="918" type="line"/>
      <point x="276" y="918" type="line"/>
      <point x="205" y="887"/>
      <point x="139" y="863"/>
      <point x="106" y="852" type="curve"/>
      <point x="109" y="836"/>
      <point x="114" y="819"/>
      <point x="116" y="803" type="curve"/>
      <point x="236" y="838" type="line"/>
      <point x="190" y="493" type="line"/>
      <point x="72" y="493" type="line"/>
      <point x="64" y="434" type="line"/>
    </contour>
  </outline>
</glyph>
<glyph name="ordmasculine" format="1">
  <advance width="355"/>
  <unicode hex="00BA"/>
  <outline>
    <contour>
      <point x="322" y="657"/>
      <point x="283" y="722"/>
      <point x="200" y="722" type="curve" smooth="yes"/>
      <point x="95" y="722"/>
      <point x="33" y="615"/>
      <point x="33" y="522" type="curve" smooth="yes"/>
      <point x="33" y="447"/>
      <point x="72" y="383"/>
      <point x="155" y="383" type="curve" smooth="yes"/>
      <point x="262" y="383"/>
      <point x="322" y="488"/>
      <point x="322" y="582" type="curve" smooth="yes"/>
    </contour>
    <contour>
      <point x="254" y="331" type="line"/>
      <point x="45" y="331" type="line"/>
      <point x="37" y="277" type="line"/>
      <point x="245" y="277" type="line"/>
    </contour>
    <contour>
      <point x="261" y="520"/>
      <point x="231" y="431"/>
      <point x="161" y="431" type="curve" smooth="yes"/>
      <point x="110" y="431"/>
      <point x="94" y="486"/>
      <point x="94" y="529" type="curve" smooth="yes"/>
      <point x="94" y="587"/>
      <point x="126" y="674"/>
      <point x="194" y="674" type="curve" smooth="yes"/>
      <point x="246" y="674"/>
      <point x="261" y="623"/>
      <point x="261" y="579" type="curve" smooth="yes"/>
    </contour>
  </outline>
</glyph>
<glyph name="onequarter" format="1">
  <advance width="923"/>
  <unicode hex="00BC"/>
  <outline>
    <contour>
      <point x="320" y="-22" type="line"/>
      <point x="452" y="236"/>
      <point x="585" y="494"/>
      <point x="718" y="753" type="curve"/>
      <point x="658" y="753" type="line"/>
      <point x="527" y="494"/>
      <point x="394" y="236"/>
      <point x="262" y="-22" type="curve"/>
    </contour>
    <contour>
      <point x="332" y="248" type="line"/>
      <point x="339" y="307" type="line"/>
      <point x="244" y="307" type="line"/>
      <point x="301" y="732" type="line"/>
      <point x="254" y="732" type="line"/>
      <point x="185" y="701"/>
      <point x="117" y="677"/>
      <point x="85" y="666" type="curve"/>
      <point x="95" y="617" type="line"/>
      <point x="215" y="652" type="line"/>
      <point x="168" y="307" type="line"/>
      <point x="51" y="307" type="line"/>
      <point x="43" y="248" type="line"/>
    </contour>
    <contour>
      <point x="786" y="0" type="line"/>
      <point x="801" y="110" type="line"/>
      <point x="856" y="110" type="line"/>
      <point x="880" y="169" type="line"/>
      <point x="809" y="169" type="line"/>
      <point x="851" y="483" type="line"/>
      <point x="775" y="483" type="line"/>
      <point x="687" y="372"/>
      <point x="601" y="261"/>
      <point x="512" y="150" type="curve"/>
      <point x="512" y="110" type="line"/>
      <point x="725" y="110" type="line"/>
      <point x="710" y="0" type="line"/>
    </contour>
    <contour>
      <point x="733" y="169" type="line"/>
      <point x="596" y="169" type="line"/>
      <point x="655" y="245"/>
      <point x="724" y="329"/>
      <point x="766" y="398" type="curve"/>
      <point x="766" y="398"/>
      <point x="754" y="327"/>
      <point x="749" y="289" type="curve" smooth="yes"/>
    </contour>
  </outline>
</glyph>
<glyph name="onehalf" format="1">
  <advance width="979"/>
  <unicode hex="00BD"/>
  <outline>
    <contour>
      <point x="331" y="248" type="line"/>
      <point x="339" y="307" type="line"/>
      <point x="244" y="307" type="line"/>
      <point x="301" y="732" type="line"/>
      <point x="253" y="732" type="line"/>
      <point x="184" y="701"/>
      <point x="117" y="677"/>
      <point x="84" y="666" type="curve"/>
      <point x="95" y="617" type="line"/>
      <point x="214" y="652" type="line"/>
      <point x="168" y="307" type="line"/>
      <point x="50" y="307" type="line"/>
      <point x="43" y="248" type="line"/>
    </contour>
    <contour>
      <point x="320" y="-22" type="line"/>
      <point x="452" y="236"/>
      <point x="585" y="494"/>
      <point x="717" y="753" type="curve"/>
      <point x="657" y="753" type="line"/>
      <point x="526" y="494"/>
      <point x="393" y="236"/>
      <point x="261" y="-22" type="curve"/>
    </contour>
    <contour>
      <point x="876" y="0" type="line"/>
      <point x="903" y="72" type="line"/>
      <point x="689" y="72" type="line"/>
      <point x="726" y="97"/>
      <point x="936" y="247"/>
      <point x="936" y="387" type="curve" smooth="yes"/>
      <point x="936" y="444"/>
      <point x="901" y="494"/>
      <point x="812" y="494" type="curve" smooth="yes"/>
      <point x="724" y="494"/>
      <point x="660" y="448"/>
      <point x="636" y="429" type="curve"/>
      <point x="661" y="381" type="line"/>
      <point x="673" y="391"/>
      <point x="729" y="431"/>
      <point x="786" y="431" type="curve" smooth="yes"/>
      <point x="828" y="431"/>
      <point x="852" y="406"/>
      <point x="852" y="370" type="curve" smooth="yes"/>
      <point x="852" y="273"/>
      <point x="668" y="114"/>
      <point x="591" y="54" type="curve" smooth="yes"/>
      <point x="578" y="44"/>
      <point x="572" y="39"/>
      <point x="569" y="38" type="curve"/>
      <point x="569" y="0" type="line"/>
    </contour>
  </outline>
</glyph>
<glyph name="threequarters" format="1">
  <advance width="920"/>
  <unicode hex="00BE"/>
  <outline>
    <contour>
      <point x="46" y="236" type="line"/>
      <point x="317" y="246"/>
      <point x="377" y="372"/>
      <point x="377" y="444" type="curve" smooth="yes"/>
      <point x="377" y="501"/>
      <point x="334" y="534"/>
      <point x="279" y="541" type="curve"/>
      <point x="326" y="559"/>
      <point x="387" y="598"/>
      <point x="387" y="663" type="curve" smooth="yes"/>
      <point x="387" y="723"/>
      <point x="328" y="741"/>
      <point x="276" y="741" type="curve" smooth="yes"/>
      <point x="219" y="741"/>
      <point x="147" y="715"/>
      <point x="100" y="679" type="curve"/>
      <point x="107" y="664"/>
      <point x="115" y="649"/>
      <point x="124" y="633" type="curve"/>
      <point x="156" y="658"/>
      <point x="209" y="683"/>
      <point x="250" y="683" type="curve" smooth="yes"/>
      <point x="286" y="683"/>
      <point x="308" y="669"/>
      <point x="308" y="643" type="curve" smooth="yes"/>
      <point x="308" y="576"/>
      <point x="219" y="548"/>
      <point x="166" y="537" type="curve"/>
      <point x="166" y="490" type="line"/>
      <point x="167" y="490"/>
      <point x="183" y="492"/>
      <point x="200" y="492" type="curve" smooth="yes"/>
      <point x="245" y="492"/>
      <point x="299" y="485"/>
      <point x="299" y="431" type="curve" smooth="yes"/>
      <point x="299" y="353"/>
      <point x="206" y="295"/>
      <point x="43" y="287" type="curve"/>
    </contour>
    <contour>
      <point x="317" y="-22" type="line"/>
      <point x="713" y="753" type="line"/>
      <point x="654" y="753" type="line"/>
      <point x="258" y="-22" type="line"/>
    </contour>
    <contour>
      <point x="783" y="0" type="line"/>
      <point x="798" y="110" type="line"/>
      <point x="853" y="110" type="line"/>
      <point x="860" y="130"/>
      <point x="868" y="149"/>
      <point x="877" y="169" type="curve"/>
      <point x="806" y="169" type="line"/>
      <point x="848" y="483" type="line"/>
      <point x="771" y="483" type="line"/>
      <point x="509" y="150" type="line"/>
      <point x="509" y="110" type="line"/>
      <point x="722" y="110" type="line"/>
      <point x="707" y="0" type="line"/>
    </contour>
    <contour>
      <point x="730" y="169" type="line"/>
      <point x="592" y="169" type="line"/>
      <point x="673" y="271"/>
      <point x="728" y="342"/>
      <point x="763" y="398" type="curve"/>
      <point x="759" y="373"/>
      <point x="750" y="321"/>
      <point x="746" y="289" type="curve" smooth="yes"/>
    </contour>
  </outline>
</glyph>
<glyph name="questiondown" format="1">
  <advance width="382"/>
  <unicode hex="00BF"/>
  <outline>
    <contour>
      <point x="385" y="579"/>
      <point x="354" y="608"/>
      <point x="318" y="608" type="curve" smooth="yes"/>
      <point x="283" y="608"/>
      <point x="253" y="577"/>
      <point x="253" y="542" type="curve" smooth="yes"/>
      <point x="253" y="507"/>
      <point x="283" y="475"/>
      <point x="319" y="475" type="curve" smooth="yes"/>
      <point x="355" y="475"/>
      <point x="385" y="507"/>
      <point x="385" y="542" type="curve" smooth="yes"/>
    </contour>
    <contour>
      <point x="363" y="350"/>
      <point x="268" y="383"/>
      <point x="183" y="391" type="curve"/>
      <point x="164" y="324" type="line"/>
      <point x="208" y="323"/>
      <point x="285" y="311"/>
      <point x="285" y="253" type="curve" smooth="yes"/>
      <point x="285" y="150"/>
      <point x="35" y="207"/>
      <point x="35" y="12" type="curve" smooth="yes"/>
      <point x="35" y="-85"/>
      <point x="102" y="-135"/>
      <point x="194" y="-135" type="curve" smooth="yes"/>
      <point x="224" y="-135"/>
      <point x="255" y="-132"/>
      <point x="284" y="-122" type="curve"/>
      <point x="267" y="-55" type="line"/>
      <point x="246" y="-67"/>
      <point x="215" y="-70"/>
      <point x="191" y="-70" type="curve" smooth="yes"/>
      <point x="154" y="-70"/>
      <point x="115" y="-48"/>
      <point x="115" y="-7" type="curve" smooth="yes"/>
      <point x="115" y="134"/>
      <point x="363" y="67"/>
      <point x="363" y="249" type="curve" smooth="yes"/>
    </contour>
  </outline>
</glyph>
<glyph name="AE" format="1">
  <advance width="820"/>
  <unicode hex="00C6"/>
  <outline>
    <contour>
      <point x="864" y="724" type="line"/>
      <point x="395" y="724" type="line"/>
      <point x="400" y="660" type="line"/>
      <point x="-26" y="0" type="line"/>
      <point x="57" y="0" type="line"/>
      <point x="218" y="247" type="line"/>
      <point x="417" y="247" type="line"/>
      <point x="384" y="0" type="line"/>
      <point x="768" y="0" type="line"/>
      <point x="778" y="69" type="line"/>
      <point x="483" y="69" type="line"/>
      <point x="518" y="338" type="line"/>
      <point x="760" y="338" type="line"/>
      <point x="770" y="406" type="line"/>
      <point x="529" y="406" type="line"/>
      <point x="561" y="655" type="line"/>
      <point x="854" y="655" type="line"/>
    </contour>
    <contour>
      <point x="469" y="637" type="line"/>
      <point x="427" y="318" type="line"/>
      <point x="264" y="318" type="line"/>
    </contour>
  </outline>
</glyph>
<glyph name="Oslash" format="1">
  <advance width="737"/>
  <unicode hex="00D8"/>
  <outline>
    <contour>
      <point x="681" y="509"/>
      <point x="665" y="588"/>
      <point x="616" y="647" type="curve"/>
      <point x="680" y="731" type="line"/>
      <point x="632" y="762" type="line"/>
      <point x="575" y="687" type="line"/>
      <point x="529" y="719"/>
      <point x="472" y="733"/>
      <point x="416" y="733" type="curve" smooth="yes"/>
      <point x="173" y="733"/>
      <point x="57" y="492"/>
      <point x="57" y="282" type="curve" smooth="yes"/>
      <point x="57" y="212"/>
      <point x="72" y="137"/>
      <point x="117" y="79" type="curve"/>
      <point x="38" y="-23" type="line"/>
      <point x="84" y="-56" type="line"/>
      <point x="156" y="39" type="line"/>
      <point x="201" y="2"/>
      <point x="259" y="-13"/>
      <point x="316" y="-13" type="curve" smooth="yes"/>
      <point x="559" y="-13"/>
      <point x="681" y="224"/>
      <point x="681" y="436" type="curve" smooth="yes"/>
    </contour>
    <contour>
      <point x="174" y="158" type="line"/>
      <point x="157" y="198"/>
      <point x="152" y="241"/>
      <point x="152" y="284" type="curve" smooth="yes"/>
      <point x="152" y="442"/>
      <point x="222" y="664"/>
      <point x="410" y="664" type="curve" smooth="yes"/>
      <point x="453" y="664"/>
      <point x="494" y="650"/>
      <point x="524" y="621" type="curve"/>
    </contour>
    <contour>
      <point x="587" y="274"/>
      <point x="517" y="55"/>
      <point x="329" y="55" type="curve" smooth="yes"/>
      <point x="282" y="55"/>
      <point x="238" y="71"/>
      <point x="206" y="106" type="curve"/>
      <point x="560" y="571" type="line"/>
      <point x="580" y="528"/>
      <point x="587" y="480"/>
      <point x="587" y="433" type="curve" smooth="yes"/>
    </contour>
  </outline>
</glyph>
<glyph name="Thorn" format="1">
  <advance width="539"/>
  <unicode hex="00DE"/>
  <outline>
    <contour>
      <point x="236" y="724" type="line"/>
      <point x="135" y="724" type="line"/>
      <point x="135" y="659" type="line"/>
      <point x="46" y="0" type="line"/>
      <point x="137" y="0" type="line"/>
      <point x="160" y="172" type="line"/>
      <point x="264" y="172" type="line" smooth="yes"/>
      <point x="421" y="172"/>
      <point x="529" y="273"/>
      <point x="529" y="429" type="curve" smooth="yes"/>
      <point x="529" y="563"/>
      <point x="434" y="610"/>
      <point x="317" y="610" type="curve" smooth="yes"/>
      <point x="221" y="610" type="line"/>
    </contour>
    <contour>
      <point x="435" y="321"/>
      <point x="374" y="239"/>
      <point x="270" y="239" type="curve" smooth="yes"/>
      <point x="170" y="239" type="line"/>
      <point x="210" y="541" type="line"/>
      <point x="309" y="541" type="line" smooth="yes"/>
      <point x="389" y="541"/>
      <point x="435" y="498"/>
      <point x="435" y="418" type="curve" smooth="yes"/>
    </contour>
  </outline>
</glyph>
<glyph name="germandbls" format="1">
  <advance width="541"/>
  <unicode hex="00DF"/>
  <outline>
    <contour>
      <point x="489" y="257"/>
      <point x="444" y="302"/>
      <point x="400" y="333" type="curve" smooth="yes"/>
      <point x="379" y="348"/>
      <point x="357" y="360"/>
      <point x="341" y="371" type="curve" smooth="yes"/>
      <point x="324" y="382"/>
      <point x="316" y="390"/>
      <point x="316" y="397" type="curve" smooth="yes"/>
      <point x="316" y="402"/>
      <point x="323" y="408"/>
      <point x="340" y="416" type="curve" smooth="yes"/>
      <point x="355" y="424"/>
      <point x="377" y="434"/>
      <point x="398" y="447" type="curve" smooth="yes"/>
      <point x="441" y="473"/>
      <point x="484" y="517"/>
      <point x="484" y="600" type="curve" smooth="yes"/>
      <point x="484" y="684"/>
      <point x="423" y="733"/>
      <point x="342" y="733" type="curve" smooth="yes"/>
      <point x="197" y="733"/>
      <point x="135" y="616"/>
      <point x="117" y="490" type="curve"/>
      <point x="45" y="490" type="line"/>
      <point x="37" y="427" type="line"/>
      <point x="109" y="427" type="line"/>
      <point x="44" y="-52" type="line" smooth="yes"/>
      <point x="33" y="-135"/>
      <point x="-1" y="-166"/>
      <point x="-45" y="-166" type="curve" smooth="yes"/>
      <point x="-79" y="-166"/>
      <point x="-88" y="-160"/>
      <point x="-115" y="-141" type="curve"/>
      <point x="-155" y="-198" type="line"/>
      <point x="-127" y="-216"/>
      <point x="-98" y="-230"/>
      <point x="-43" y="-230" type="curve" smooth="yes"/>
      <point x="47" y="-230"/>
      <point x="106" y="-177"/>
      <point x="122" y="-61" type="curve" smooth="yes"/>
      <point x="197" y="488" type="line" smooth="yes"/>
      <point x="208" y="568"/>
      <point x="243" y="666"/>
      <point x="335" y="666" type="curve" smooth="yes"/>
      <point x="377" y="666"/>
      <point x="400" y="638"/>
      <point x="400" y="596" type="curve" smooth="yes"/>
      <point x="400" y="535"/>
      <point x="362" y="501"/>
      <point x="323" y="475" type="curve" smooth="yes"/>
      <point x="313" y="468"/>
      <point x="304" y="462"/>
      <point x="294" y="456" type="curve" smooth="yes"/>
      <point x="272" y="442"/>
      <point x="242" y="423"/>
      <point x="242" y="393" type="curve" smooth="yes"/>
      <point x="242" y="311"/>
      <point x="402" y="283"/>
      <point x="402" y="175" type="curve" smooth="yes"/>
      <point x="402" y="103"/>
      <point x="351" y="52"/>
      <point x="281" y="52" type="curve" smooth="yes"/>
      <point x="258" y="52"/>
      <point x="234" y="56"/>
      <point x="206" y="66" type="curve"/>
      <point x="182" y="8" type="line"/>
      <point x="213" y="-7"/>
      <point x="252" y="-13"/>
      <point x="280" y="-13" type="curve" smooth="yes"/>
      <point x="398" y="-13"/>
      <point x="489" y="55"/>
      <point x="489" y="181" type="curve" smooth="yes"/>
    </contour>
  </outline>
</glyph>
<glyph name="ae" format="1">
  <advance width="714"/>
  <unicode hex="00E6"/>
  <outline>
    <contour>
      <point x="677" y="475"/>
      <point x="618" y="505"/>
      <point x="550" y="505" type="curve" smooth="yes"/>
      <point x="493" y="505"/>
      <point x="444" y="486"/>
      <point x="405" y="454" type="curve"/>
      <point x="379" y="489"/>
      <point x="337" y="505"/>
      <point x="294" y="505" type="curve" smooth="yes"/>
      <point x="138" y="505"/>
      <point x="36" y="319"/>
      <point x="36" y="185" type="curve" smooth="yes"/>
      <point x="36" y="77"/>
      <point x="86" y="-13"/>
      <point x="193" y="-13" type="curve" smooth="yes"/>
      <point x="250" y="-13"/>
      <point x="297" y="13"/>
      <point x="332" y="54" type="curve"/>
      <point x="366" y="13"/>
      <point x="418" y="-12"/>
      <point x="484" y="-12" type="curve" smooth="yes"/>
      <point x="549" y="-12"/>
      <point x="615" y="15"/>
      <point x="657" y="44" type="curve"/>
      <point x="628" y="103" type="line"/>
      <point x="588" y="75"/>
      <point x="540" y="58"/>
      <point x="489" y="58" type="curve" smooth="yes"/>
      <point x="408" y="58"/>
      <point x="372" y="124"/>
      <point x="372" y="198" type="curve" smooth="yes"/>
      <point x="372" y="203" type="line"/>
      <point x="441" y="204"/>
      <point x="519" y="212"/>
      <point x="580" y="249" type="curve" smooth="yes"/>
      <point x="633" y="281"/>
      <point x="677" y="332"/>
      <point x="677" y="399" type="curve" smooth="yes"/>
    </contour>
    <contour>
      <point x="593" y="387" type="line"/>
      <point x="593" y="284"/>
      <point x="438" y="262"/>
      <point x="377" y="261" type="curve"/>
      <point x="383" y="339"/>
      <point x="456" y="443"/>
      <point x="537" y="443" type="curve" smooth="yes"/>
      <point x="571" y="443"/>
      <point x="592" y="425"/>
      <point x="593" y="391" type="curve" smooth="yes"/>
    </contour>
    <contour>
      <point x="314" y="356"/>
      <point x="286" y="272"/>
      <point x="286" y="193" type="curve" smooth="yes"/>
      <point x="286" y="159"/>
      <point x="292" y="129"/>
      <point x="303" y="102" type="curve"/>
      <point x="279" y="71"/>
      <point x="248" y="50"/>
      <point x="206" y="50" type="curve" smooth="yes"/>
      <point x="145" y="50"/>
      <point x="129" y="126"/>
      <point x="129" y="178" type="curve" smooth="yes"/>
      <point x="129" y="274"/>
      <point x="182" y="443"/>
      <point x="290" y="443" type="curve" smooth="yes"/>
      <point x="315" y="443"/>
      <point x="344" y="433"/>
      <point x="365" y="416" type="curve"/>
    </contour>
  </outline>
</glyph>
<glyph name="divide" format="1">
  <advance width="630"/>
  <unicode hex="00F7"/>
  <outline>
    <contour>
      <point x="377" y="434"/>
      <point x="350" y="461"/>
      <point x="316" y="461" type="curve" smooth="yes"/>
      <point x="282" y="461"/>
      <point x="255" y="434"/>
      <point x="255" y="400" type="curve" smooth="yes"/>
      <point x="255" y="366"/>
      <point x="283" y="340"/>
      <point x="316" y="340" type="curve" smooth="yes"/>
      <point x="349" y="340"/>
      <point x="377" y="366"/>
      <point x="377" y="400" type="curve" smooth="yes"/>
    </contour>
    <contour>
      <point x="567" y="210" type="line"/>
      <point x="567" y="276" type="line"/>
      <point x="68" y="276" type="line"/>
      <point x="68" y="210" type="line"/>
    </contour>
    <contour>
      <point x="377" y="121"/>
      <point x="350" y="147"/>
      <point x="316" y="147" type="curve" smooth="yes"/>
      <point x="283" y="147"/>
      <point x="255" y="121"/>
      <point x="255" y="87" type="curve" smooth="yes"/>
      <point x="255" y="53"/>
      <point x="282" y="27"/>
      <point x="316" y="27" type="curve" smooth="yes"/>
      <point x="350" y="27"/>
      <point x="377" y="53"/>
      <point x="377" y="87" type="curve" smooth="yes"/>
    </contour>
  </outline>
</glyph>
<glyph name="oslash" format="1">
  <advance width="555"/>
  <unicode hex="00F8"/>
  <outline>
    <contour>
      <point x="502" y="522" type="line"/>
      <point x="457" y="550" type="line"/>
      <point x="405" y="480" type="line"/>
      <point x="378" y="497"/>
      <point x="337" y="506"/>
      <point x="306" y="506" type="curve" smooth="yes"/>
      <point x="145" y="506"/>
      <point x="53" y="338"/>
      <point x="53" y="196" type="curve" smooth="yes"/>
      <point x="53" y="147"/>
      <point x="64" y="95"/>
      <point x="96" y="54" type="curve"/>
      <point x="26" y="-37" type="line"/>
      <point x="68" y="-67" type="line"/>
      <point x="133" y="18" type="line"/>
      <point x="162" y="-4"/>
      <point x="199" y="-12"/>
      <point x="235" y="-12" type="curve" smooth="yes"/>
      <point x="399" y="-12"/>
      <point x="488" y="156"/>
      <point x="488" y="299" type="curve" smooth="yes"/>
      <point x="488" y="349"/>
      <point x="476" y="402"/>
      <point x="443" y="443" type="curve"/>
    </contour>
    <contour>
      <point x="148" y="128" type="line"/>
      <point x="138" y="149"/>
      <point x="136" y="181"/>
      <point x="136" y="204" type="curve" smooth="yes"/>
      <point x="136" y="300"/>
      <point x="188" y="443"/>
      <point x="299" y="443" type="curve" smooth="yes"/>
      <point x="322" y="443"/>
      <point x="344" y="436"/>
      <point x="362" y="420" type="curve"/>
    </contour>
    <contour>
      <point x="405" y="199"/>
      <point x="356" y="51"/>
      <point x="241" y="51" type="curve" smooth="yes"/>
      <point x="217" y="51"/>
      <point x="193" y="61"/>
      <point x="176" y="79" type="curve"/>
      <point x="394" y="372" type="line"/>
      <point x="402" y="348"/>
      <point x="405" y="322"/>
      <point x="405" y="296" type="curve" smooth="yes"/>
    </contour>
  </outline>
</glyph>
<glyph name="thorn" format="1">
  <advance width="518"/>
  <unicode hex="00FE"/>
  <outline>
    <contour>
      <point x="224" y="764" type="line"/>
      <point x="136" y="764" type="line"/>
      <point x="136" y="707" type="line"/>
      <point x="10" y="-223" type="line"/>
      <point x="99" y="-223" type="line"/>
      <point x="99" y="-165" type="line"/>
      <point x="124" y="22" type="line"/>
      <point x="143" y="4"/>
      <point x="186" y="-13"/>
      <point x="223" y="-13" type="curve" smooth="yes"/>
      <point x="378" y="-13"/>
      <point x="479" y="156"/>
      <point x="479" y="308" type="curve" smooth="yes"/>
      <point x="479" y="413"/>
      <point x="429" y="503"/>
      <point x="321" y="503" type="curve" smooth="yes"/>
      <point x="259" y="503"/>
      <point x="213" y="477"/>
      <point x="179" y="432" type="curve"/>
    </contour>
    <contour>
      <point x="386" y="204"/>
      <point x="334" y="49"/>
      <point x="226" y="49" type="curve" smooth="yes"/>
      <point x="194" y="49"/>
      <point x="154" y="64"/>
      <point x="134" y="88" type="curve"/>
      <point x="137" y="106"/>
      <point x="140" y="142"/>
      <point x="145" y="178" type="curve" smooth="yes"/>
      <point x="157" y="265"/>
      <point x="189" y="441"/>
      <point x="301" y="441" type="curve" smooth="yes"/>
      <point x="370" y="441"/>
      <point x="386" y="369"/>
      <point x="386" y="314" type="curve" smooth="yes"/>
    </contour>
  </outline>
</glyph>
<glyph name="dotlessi" format="1">
  <advance width="227"/>
  <unicode hex="0131"/>
  <outline>
    <contour>
      <point x="186" y="490" type="line"/>
      <point x="98" y="490" type="line"/>
      <point x="98" y="433" type="line"/>
      <point x="40" y="0" type="line"/>
      <point x="128" y="0" type="line"/>
      <point x="128" y="58" type="line"/>
    </contour>
  </outline>
</glyph>
<glyph name="Lslash" format="1">
  <advance width="471"/>
  <unicode hex="0141"/>
  <outline>
    <contour>
      <point x="388" y="417" type="line"/>
      <point x="398" y="485" type="line"/>
      <point x="189" y="390" type="line"/>
      <point x="234" y="724" type="line"/>
      <point x="134" y="724" type="line"/>
      <point x="134" y="659" type="line"/>
      <point x="91" y="345" type="line"/>
      <point x="14" y="310" type="line"/>
      <point x="4" y="242" type="line"/>
      <point x="82" y="278" type="line"/>
      <point x="45" y="0" type="line"/>
      <point x="425" y="0" type="line"/>
      <point x="435" y="69" type="line"/>
      <point x="146" y="69" type="line"/>
      <point x="180" y="322" type="line"/>
    </contour>
  </outline>
</glyph>
<glyph name="lslash" format="1">
  <advance width="227"/>
  <unicode hex="0142"/>
  <outline>
    <contour>
      <point x="241" y="371" type="line"/>
      <point x="251" y="439" type="line"/>
      <point x="174" y="405" type="line"/>
      <point x="223" y="764" type="line"/>
      <point x="135" y="764" type="line"/>
      <point x="135" y="707" type="line"/>
      <point x="88" y="366" type="line"/>
      <point x="12" y="332" type="line"/>
      <point x="2" y="264" type="line"/>
      <point x="79" y="298" type="line"/>
      <point x="39" y="0" type="line"/>
      <point x="128" y="0" type="line"/>
      <point x="128" y="58" type="line"/>
      <point x="165" y="337" type="line"/>
    </contour>
  </outline>
</glyph>
<glyph name="oe" format="1">
  <advance width="801"/>
  <unicode hex="0153"/>
  <outline>
    <contour>
      <point x="764" y="473"/>
      <point x="706" y="503"/>
      <point x="637" y="503" type="curve" smooth="yes"/>
      <point x="560" y="503"/>
      <point x="494" y="467"/>
      <point x="447" y="407" type="curve"/>
      <point x="416" y="471"/>
      <point x="358" y="503"/>
      <point x="288" y="503" type="curve" smooth="yes"/>
      <point x="129" y="503"/>
      <point x="36" y="341"/>
      <point x="36" y="197" type="curve" smooth="yes"/>
      <point x="36" y="84"/>
      <point x="97" y="-14"/>
      <point x="220" y="-14" type="curve" smooth="yes"/>
      <point x="294" y="-14"/>
      <point x="357" y="21"/>
      <point x="401" y="79" type="curve"/>
      <point x="436" y="16"/>
      <point x="500" y="-14"/>
      <point x="571" y="-14" type="curve" smooth="yes"/>
      <point x="630" y="-14"/>
      <point x="696" y="8"/>
      <point x="744" y="42" type="curve"/>
      <point x="715" y="101" type="line"/>
      <point x="674" y="73"/>
      <point x="626" y="56"/>
      <point x="576" y="56" type="curve" smooth="yes"/>
      <point x="495" y="56"/>
      <point x="459" y="124"/>
      <point x="459" y="196" type="curve" smooth="yes"/>
      <point x="459" y="201" type="line"/>
      <point x="529" y="202"/>
      <point x="605" y="210"/>
      <point x="667" y="247" type="curve" smooth="yes"/>
      <point x="721" y="279"/>
      <point x="764" y="331"/>
      <point x="764" y="397" type="curve" smooth="yes"/>
    </contour>
    <contour>
      <point x="681" y="328"/>
      <point x="601" y="259"/>
      <point x="465" y="259" type="curve"/>
      <point x="465" y="303"/>
      <point x="523" y="441"/>
      <point x="626" y="441" type="curve" smooth="yes"/>
      <point x="663" y="441"/>
      <point x="681" y="416"/>
      <point x="681" y="393" type="curve" smooth="yes"/>
    </contour>
    <contour>
      <point x="386" y="200"/>
      <point x="342" y="49"/>
      <point x="227" y="49" type="curve" smooth="yes"/>
      <point x="148" y="49"/>
      <point x="122" y="138"/>
      <point x="122" y="202" type="curve" smooth="yes"/>
      <point x="122" y="294"/>
      <point x="169" y="441"/>
      <point x="281" y="441" type="curve" smooth="yes"/>
      <point x="361" y="441"/>
      <point x="386" y="359"/>
      <point x="386" y="293" type="curve" smooth="yes"/>
    </contour>
  </outline>
</glyph>
<glyph name="florin" format="1">
  <advance width="520"/>
  <unicode hex="0192"/>
  <outline>
    <contour>
      <point x="632" y="732" type="line"/>
      <point x="603" y="755"/>
      <point x="571" y="772"/>
      <point x="517" y="772" type="curve" smooth="yes"/>
      <point x="358" y="772"/>
      <point x="297" y="634"/>
      <point x="260" y="490" type="curve"/>
      <point x="188" y="490" type="line"/>
      <point x="170" y="427" type="line"/>
      <point x="241" y="427" type="line"/>
      <point x="111" y="-52" type="line" smooth="yes"/>
      <point x="88" y="-135"/>
      <point x="50" y="-166"/>
      <point x="5" y="-166" type="curve" smooth="yes"/>
      <point x="-15" y="-166"/>
      <point x="-26" y="-164"/>
      <point x="-35" y="-160" type="curve" smooth="yes"/>
      <point x="-45" y="-155"/>
      <point x="-53" y="-148"/>
      <point x="-62" y="-142" type="curve"/>
      <point x="-108" y="-198" type="line"/>
      <point x="-83" y="-217"/>
      <point x="-55" y="-230"/>
      <point x="0" y="-230" type="curve" smooth="yes"/>
      <point x="90" y="-230"/>
      <point x="156" y="-177"/>
      <point x="188" y="-62" type="curve" smooth="yes"/>
      <point x="322" y="427" type="line"/>
      <point x="434" y="427" type="line"/>
      <point x="452" y="490" type="line"/>
      <point x="339" y="490" type="line"/>
      <point x="366" y="592"/>
      <point x="408" y="709"/>
      <point x="516" y="709" type="curve" smooth="yes"/>
      <point x="544" y="709"/>
      <point x="568" y="696"/>
      <point x="585" y="674" type="curve"/>
    </contour>
  </outline>
</glyph>
<glyph name="circumflex" format="1">
  <advance width="254"/>
  <unicode hex="02C6"/>
  <outline>
    <contour>
      <point x="266" y="574" type="line"/>
      <point x="186" y="724" type="line"/>
      <point x="107" y="724" type="line"/>
      <point x="-11" y="574" type="line"/>
      <point x="54" y="574" type="line"/>
      <point x="137" y="653" type="line"/>
      <point x="201" y="574" type="line"/>
    </contour>
  </outline>
</glyph>
<glyph name="caron" format="1">
  <advance width="264"/>
  <unicode hex="02C7"/>
  <outline>
    <contour>
      <point x="289" y="724" type="line"/>
      <point x="222" y="724" type="line"/>
      <point x="135" y="625" type="line"/>
      <point x="77" y="724" type="line"/>
      <point x="12" y="724" type="line"/>
      <point x="85" y="553" type="line"/>
      <point x="166" y="553" type="line"/>
    </contour>
  </outline>
</glyph>
<glyph name="breve" format="1">
  <advance width="256"/>
  <unicode hex="02D8"/>
  <outline>
    <contour>
      <point x="233" y="724" type="line"/>
      <point x="218" y="686"/>
      <point x="189" y="657"/>
      <point x="137" y="657" type="curve" smooth="yes"/>
      <point x="83" y="657"/>
      <point x="65" y="686"/>
      <point x="62" y="724" type="curve"/>
      <point x="15" y="724" type="line"/>
      <point x="15" y="711" type="line"/>
      <point x="15" y="630"/>
      <point x="60" y="589"/>
      <point x="129" y="589" type="curve" smooth="yes"/>
      <point x="218" y="589"/>
      <point x="260" y="646"/>
      <point x="280" y="724" type="curve"/>
    </contour>
  </outline>
</glyph>
<glyph name="dotaccent" format="1">
  <advance width="201"/>
  <unicode hex="02D9"/>
  <outline>
    <contour>
      <point x="104" y="689"/>
      <point x="76" y="647"/>
      <point x="76" y="618" type="curve" smooth="yes"/>
      <point x="76" y="593"/>
      <point x="91" y="561"/>
      <point x="134" y="561" type="curve" smooth="yes"/>
      <point x="182" y="561"/>
      <point x="210" y="602"/>
      <point x="210" y="630" type="curve" smooth="yes"/>
      <point x="210" y="659"/>
      <point x="192" y="689"/>
      <point x="150" y="689" type="curve" smooth="yes"/>
    </contour>
  </outline>
</glyph>
<glyph name="ring" format="1">
  <advance width="221"/>
  <unicode hex="02DA"/>
  <outline>
    <contour>
      <point x="241" y="705"/>
      <point x="197" y="750"/>
      <point x="142" y="750" type="curve" smooth="yes"/>
      <point x="87" y="750"/>
      <point x="42" y="705"/>
      <point x="42" y="650" type="curve" smooth="yes"/>
      <point x="42" y="595"/>
      <point x="86" y="551"/>
      <point x="141" y="551" type="curve" smooth="yes"/>
      <point x="196" y="551"/>
      <point x="241" y="595"/>
      <point x="241" y="650" type="curve" smooth="yes"/>
    </contour>
    <contour>
      <point x="189" y="624"/>
      <point x="168" y="602"/>
      <point x="141" y="602" type="curve" smooth="yes"/>
      <point x="115" y="602"/>
      <point x="93" y="624"/>
      <point x="93" y="650" type="curve" smooth="yes"/>
      <point x="93" y="676"/>
      <point x="115" y="698"/>
      <point x="141" y="698" type="curve" smooth="yes"/>
      <point x="167" y="698"/>
      <point x="189" y="676"/>
      <point x="189" y="650" type="curve" smooth="yes"/>
    </contour>
  </outline>
</glyph>
<glyph name="ogonek" format="1">
  <advance width="294"/>
  <unicode hex="02DB"/>
  <outline>
    <contour>
      <point x="234" y="23" type="line"/>
      <point x="163" y="6"/>
      <point x="36" y="-51"/>
      <point x="36" y="-132" type="curve" smooth="yes"/>
      <point x="36" y="-171"/>
      <point x="62" y="-201"/>
      <point x="117" y="-201" type="curve" smooth="yes"/>
      <point x="177" y="-201"/>
      <point x="228" y="-167"/>
      <point x="251" y="-151" type="curve"/>
      <point x="240" y="-114" type="line"/>
      <point x="213" y="-129"/>
      <point x="180" y="-146"/>
      <point x="159" y="-146" type="curve" smooth="yes"/>
      <point x="132" y="-146"/>
      <point x="118" y="-133"/>
      <point x="118" y="-111" type="curve" smooth="yes"/>
      <point x="118" y="-51"/>
      <point x="211" y="-8"/>
      <point x="252" y="11" type="curve"/>
    </contour>
  </outline>
</glyph>
<glyph name="tilde" format="1">
  <advance width="272"/>
  <unicode hex="02DC"/>
  <outline>
    <contour>
      <point x="266" y="673" type="line"/>
      <point x="262" y="669"/>
      <point x="235" y="645"/>
      <point x="211" y="645" type="curve" smooth="yes"/>
      <point x="174" y="645"/>
      <point x="140" y="683"/>
      <point x="88" y="683" type="curve" smooth="yes"/>
      <point x="12" y="683"/>
      <point x="-18" y="606"/>
      <point x="-18" y="606" type="curve"/>
      <point x="7" y="586" type="line"/>
      <point x="11" y="590"/>
      <point x="37" y="613"/>
      <point x="60" y="613" type="curve" smooth="yes"/>
      <point x="107" y="613"/>
      <point x="138" y="575"/>
      <point x="192" y="575" type="curve" smooth="yes"/>
      <point x="260" y="575"/>
      <point x="289" y="648"/>
      <point x="289" y="648" type="curve"/>
    </contour>
  </outline>
</glyph>
<glyph name="hungarumlaut" format="1">
  <advance width="308"/>
  <unicode hex="02DD"/>
  <outline>
    <contour>
      <point x="337" y="724" type="line"/>
      <point x="224" y="724" type="line"/>
      <point x="122" y="557" type="line"/>
      <point x="182" y="557" type="line"/>
    </contour>
    <contour>
      <point x="202" y="724" type="line"/>
      <point x="89" y="724" type="line"/>
      <point x="-12" y="557" type="line"/>
      <point x="48" y="557" type="line"/>
    </contour>
  </outline>
</glyph>
<glyph name="pi" format="1">
  <advance width="669"/>
  <unicode hex="03C0"/>
  <outline>
    <contour>
      <point x="628" y="512" type="line"/>
      <point x="594" y="493"/>
      <point x="566" y="490"/>
      <point x="531" y="490" type="curve" smooth="yes"/>
      <point x="244" y="490" type="line" smooth="yes"/>
      <point x="151" y="490"/>
      <point x="86" y="435"/>
      <point x="71" y="355" type="curve"/>
      <point x="84" y="350"/>
      <point x="99" y="346"/>
      <point x="114" y="342" type="curve"/>
      <point x="130" y="388"/>
      <point x="170" y="418"/>
      <point x="217" y="422" type="curve"/>
      <point x="214" y="409"/>
      <point x="209" y="398"/>
      <point x="207" y="386" type="curve" smooth="yes"/>
      <point x="178" y="172" type="line" smooth="yes"/>
      <point x="169" y="102"/>
      <point x="128" y="38"/>
      <point x="69" y="6" type="curve"/>
      <point x="76" y="-6"/>
      <point x="82" y="-19"/>
      <point x="87" y="-31" type="curve"/>
      <point x="236" y="20"/>
      <point x="265" y="192"/>
      <point x="284" y="331" type="curve" smooth="yes"/>
      <point x="297" y="422" type="line"/>
      <point x="459" y="422" type="line"/>
      <point x="404" y="333"/>
      <point x="369" y="219"/>
      <point x="369" y="118" type="curve" smooth="yes"/>
      <point x="369" y="52"/>
      <point x="390" y="-12"/>
      <point x="461" y="-12" type="curve" smooth="yes"/>
      <point x="496" y="-12"/>
      <point x="527" y="0"/>
      <point x="553" y="21" type="curve"/>
      <point x="547" y="36"/>
      <point x="543" y="52"/>
      <point x="537" y="68" type="curve"/>
      <point x="523" y="62"/>
      <point x="510" y="58"/>
      <point x="495" y="58" type="curve" smooth="yes"/>
      <point x="458" y="58"/>
      <point x="449" y="95"/>
      <point x="449" y="131" type="curve" smooth="yes"/>
      <point x="449" y="218"/>
      <point x="488" y="328"/>
      <point x="530" y="422" type="curve"/>
      <point x="572" y="424"/>
      <point x="615" y="437"/>
      <point x="646" y="471" type="curve"/>
    </contour>
  </outline>
</glyph>
<glyph name="endash" format="1">
  <advance width="551"/>
  <unicode hex="2013"/>
  <outline>
    <contour>
      <point x="523" y="285" type="line"/>
      <point x="37" y="285" type="line"/>
      <point x="28" y="228" type="line"/>
      <point x="514" y="228" type="line"/>
    </contour>
  </outline>
</glyph>
<glyph name="emdash" format="1">
  <advance width="901"/>
  <unicode hex="2014"/>
  <outline>
    <contour>
      <point x="873" y="285" type="line"/>
      <point x="37" y="285" type="line"/>
      <point x="28" y="228" type="line"/>
      <point x="864" y="228" type="line"/>
    </contour>
  </outline>
</glyph>
<glyph name="quoteleft" format="1">
  <advance width="191"/>
  <unicode hex="2018"/>
  <outline>
    <contour>
      <point x="198" y="693" type="line"/>
      <point x="168" y="726" type="line"/>
      <point x="109" y="687"/>
      <point x="45" y="624"/>
      <point x="45" y="551" type="curve" smooth="yes"/>
      <point x="45" y="513"/>
      <point x="68" y="480"/>
      <point x="111" y="480" type="curve" smooth="yes"/>
      <point x="147" y="480"/>
      <point x="180" y="504"/>
      <point x="180" y="547" type="curve" smooth="yes"/>
      <point x="180" y="585"/>
      <point x="140" y="600"/>
      <point x="140" y="619" type="curve" smooth="yes"/>
      <point x="140" y="644"/>
      <point x="170" y="669"/>
      <point x="191" y="687" type="curve"/>
    </contour>
  </outline>
</glyph>
<glyph name="quotesinglbase" format="1">
  <advance width="252"/>
  <unicode hex="201A"/>
  <outline>
    <contour>
      <point x="171" y="88"/>
      <point x="147" y="120"/>
      <point x="105" y="120" type="curve" smooth="yes"/>
      <point x="68" y="120"/>
      <point x="35" y="97"/>
      <point x="35" y="54" type="curve" smooth="yes"/>
      <point x="35" y="16"/>
      <point x="75" y="1"/>
      <point x="75" y="-18" type="curve" smooth="yes"/>
      <point x="75" y="-46"/>
      <point x="38" y="-74"/>
      <point x="18" y="-92" type="curve"/>
      <point x="47" y="-125" type="line"/>
      <point x="106" y="-86"/>
      <point x="171" y="-22"/>
      <point x="171" y="50" type="curve" smooth="yes"/>
    </contour>
  </outline>
</glyph>
<glyph name="quotedblleft" format="1">
  <advance width="381"/>
  <unicode hex="201C"/>
  <outline>
    <contour>
      <point x="388" y="693" type="line"/>
      <point x="358" y="726" type="line"/>
      <point x="299" y="687"/>
      <point x="235" y="624"/>
      <point x="235" y="551" type="curve" smooth="yes"/>
      <point x="235" y="513"/>
      <point x="258" y="481"/>
      <point x="301" y="481" type="curve" smooth="yes"/>
      <point x="337" y="481"/>
      <point x="370" y="504"/>
      <point x="370" y="547" type="curve" smooth="yes"/>
      <point x="370" y="585"/>
      <point x="330" y="600"/>
      <point x="330" y="619" type="curve" smooth="yes"/>
      <point x="330" y="644"/>
      <point x="360" y="669"/>
      <point x="381" y="687" type="curve"/>
    </contour>
    <contour>
      <point x="198" y="693" type="line"/>
      <point x="168" y="726" type="line"/>
      <point x="109" y="687"/>
      <point x="45" y="624"/>
      <point x="45" y="551" type="curve" smooth="yes"/>
      <point x="45" y="513"/>
      <point x="67" y="480"/>
      <point x="111" y="480" type="curve" smooth="yes"/>
      <point x="147" y="480"/>
      <point x="180" y="504"/>
      <point x="180" y="547" type="curve" smooth="yes"/>
      <point x="180" y="585"/>
      <point x="140" y="600"/>
      <point x="140" y="619" type="curve" smooth="yes"/>
      <point x="140" y="644"/>
      <point x="170" y="669"/>
      <point x="191" y="687" type="curve"/>
    </contour>
  </outline>
</glyph>
<glyph name="quotedblright" format="1">
  <advance width="451"/>
  <unicode hex="201D"/>
  <outline>
    <contour>
      <point x="406" y="693"/>
      <point x="382" y="725"/>
      <point x="340" y="725" type="curve" smooth="yes"/>
      <point x="303" y="725"/>
      <point x="270" y="701"/>
      <point x="270" y="658" type="curve" smooth="yes"/>
      <point x="270" y="621"/>
      <point x="310" y="605"/>
      <point x="310" y="586" type="curve" smooth="yes"/>
      <point x="310" y="558"/>
      <point x="273" y="530"/>
      <point x="253" y="512" type="curve"/>
      <point x="282" y="479" type="line"/>
      <point x="341" y="518"/>
      <point x="406" y="582"/>
      <point x="406" y="654" type="curve" smooth="yes"/>
    </contour>
    <contour>
      <point x="216" y="693"/>
      <point x="193" y="725"/>
      <point x="150" y="725" type="curve" smooth="yes"/>
      <point x="114" y="725"/>
      <point x="81" y="701"/>
      <point x="81" y="658" type="curve" smooth="yes"/>
      <point x="81" y="621"/>
      <point x="121" y="605"/>
      <point x="121" y="586" type="curve" smooth="yes"/>
      <point x="121" y="558"/>
      <point x="83" y="530"/>
      <point x="63" y="512" type="curve"/>
      <point x="93" y="479" type="line"/>
      <point x="152" y="518"/>
      <point x="216" y="582"/>
      <point x="216" y="654" type="curve" smooth="yes"/>
    </contour>
  </outline>
</glyph>
<glyph name="quotedblbase" format="1">
  <advance width="440"/>
  <unicode hex="201E"/>
  <outline>
    <contour>
      <point x="360" y="88"/>
      <point x="337" y="121"/>
      <point x="294" y="121" type="curve" smooth="yes"/>
      <point x="258" y="121"/>
      <point x="225" y="97"/>
      <point x="225" y="54" type="curve" smooth="yes"/>
      <point x="225" y="16"/>
      <point x="265" y="1"/>
      <point x="265" y="-18" type="curve" smooth="yes"/>
      <point x="265" y="-43"/>
      <point x="234" y="-70"/>
      <point x="213" y="-87" type="curve" smooth="yes"/>
      <point x="207" y="-92" type="line"/>
      <point x="237" y="-125" type="line"/>
      <point x="296" y="-86"/>
      <point x="360" y="-22"/>
      <point x="360" y="50" type="curve" smooth="yes"/>
    </contour>
    <contour>
      <point x="170" y="88"/>
      <point x="147" y="121"/>
      <point x="104" y="121" type="curve" smooth="yes"/>
      <point x="68" y="121"/>
      <point x="35" y="97"/>
      <point x="35" y="54" type="curve" smooth="yes"/>
      <point x="35" y="16"/>
      <point x="75" y="1"/>
      <point x="75" y="-18" type="curve" smooth="yes"/>
      <point x="75" y="-43"/>
      <point x="44" y="-70"/>
      <point x="23" y="-87" type="curve" smooth="yes"/>
      <point x="17" y="-92" type="line"/>
      <point x="47" y="-125" type="line"/>
      <point x="106" y="-86"/>
      <point x="170" y="-22"/>
      <point x="170" y="50" type="curve" smooth="yes"/>
    </contour>
  </outline>
</glyph>
<glyph name="dagger" format="1">
  <advance width="490"/>
  <unicode hex="2020"/>
  <outline>
    <contour>
      <point x="459" y="481" type="line"/>
      <point x="409" y="524" type="line"/>
      <point x="271" y="498" type="line"/>
      <point x="321" y="657" type="line"/>
      <point x="285" y="730" type="line"/>
      <point x="232" y="657" type="line"/>
      <point x="238" y="498" type="line"/>
      <point x="110" y="524" type="line"/>
      <point x="46" y="485" type="line"/>
      <point x="99" y="445" type="line"/>
      <point x="234" y="468" type="line"/>
      <point x="224" y="437"/>
      <point x="188" y="335"/>
      <point x="184" y="309" type="curve" smooth="yes"/>
      <point x="176" y="251"/>
      <point x="178" y="219"/>
      <point x="173" y="162" type="curve" smooth="yes"/>
      <point x="149" y="-133" type="line"/>
      <point x="185" y="-133" type="line"/>
      <point x="243" y="162" type="line" smooth="yes"/>
      <point x="254" y="219"/>
      <point x="263" y="251"/>
      <point x="271" y="309" type="curve" smooth="yes"/>
      <point x="272" y="314"/>
      <point x="272" y="324"/>
      <point x="272" y="335" type="curve" smooth="yes"/>
      <point x="272" y="376"/>
      <point x="268" y="445"/>
      <point x="267" y="468" type="curve"/>
      <point x="398" y="445" type="line"/>
    </contour>
  </outline>
</glyph>
<glyph name="daggerdbl" format="1">
  <advance width="532"/>
  <unicode hex="2021"/>
  <outline>
    <contour>
      <point x="498" y="481" type="line"/>
      <point x="448" y="524" type="line"/>
      <point x="311" y="498" type="line"/>
      <point x="361" y="657" type="line"/>
      <point x="324" y="730" type="line"/>
      <point x="272" y="657" type="line"/>
      <point x="278" y="498" type="line"/>
      <point x="149" y="524" type="line"/>
      <point x="86" y="485" type="line"/>
      <point x="138" y="445" type="line"/>
      <point x="274" y="468" type="line"/>
      <point x="264" y="437"/>
      <point x="228" y="335"/>
      <point x="224" y="309" type="curve" smooth="yes"/>
      <point x="223" y="301"/>
      <point x="223" y="288"/>
      <point x="223" y="273" type="curve" smooth="yes"/>
      <point x="223" y="227"/>
      <point x="226" y="156"/>
      <point x="226" y="129" type="curve"/>
      <point x="97" y="150" type="line"/>
      <point x="34" y="116" type="line"/>
      <point x="86" y="74" type="line"/>
      <point x="222" y="99" type="line"/>
      <point x="171" y="-60" type="line"/>
      <point x="210" y="-130" type="line"/>
      <point x="260" y="-60" type="line"/>
      <point x="260" y="99" type="line"/>
      <point x="382" y="74" type="line"/>
      <point x="447" y="112" type="line"/>
      <point x="393" y="150" type="line"/>
      <point x="263" y="129" type="line"/>
      <point x="273" y="165"/>
      <point x="308" y="278"/>
      <point x="312" y="309" type="curve"/>
      <point x="312" y="318" type="line"/>
      <point x="312" y="350"/>
      <point x="307" y="451"/>
      <point x="307" y="468" type="curve"/>
      <point x="437" y="445" type="line"/>
    </contour>
  </outline>
</glyph>
<glyph name="bullet" format="1">
  <advance width="405"/>
  <unicode hex="2022"/>
  <outline>
    <contour>
      <point x="359" y="444"/>
      <point x="290" y="513"/>
      <point x="202" y="513" type="curve" smooth="yes"/>
      <point x="113" y="513"/>
      <point x="46" y="441"/>
      <point x="46" y="357" type="curve" smooth="yes"/>
      <point x="46" y="271"/>
      <point x="115" y="201"/>
      <point x="204" y="201" type="curve" smooth="yes"/>
      <point x="292" y="201"/>
      <point x="359" y="271"/>
      <point x="359" y="357" type="curve" smooth="yes"/>
    </contour>
  </outline>
</glyph>
<glyph name="ellipsis" format="1">
  <advance width="639"/>
  <unicode hex="2026"/>
  <outline>
    <contour>
      <point x="559" y="91"/>
      <point x="528" y="120"/>
      <point x="492" y="120" type="curve" smooth="yes"/>
      <point x="456" y="120"/>
      <point x="426" y="90"/>
      <point x="426" y="54" type="curve" smooth="yes"/>
      <point x="426" y="18"/>
      <point x="455" y="-13"/>
      <point x="492" y="-13" type="curve" smooth="yes"/>
      <point x="529" y="-13"/>
      <point x="559" y="17"/>
      <point x="559" y="54" type="curve" smooth="yes"/>
    </contour>
    <contour>
      <point x="363" y="91"/>
      <point x="332" y="120"/>
      <point x="296" y="120" type="curve" smooth="yes"/>
      <point x="260" y="120"/>
      <point x="230" y="90"/>
      <point x="230" y="54" type="curve" smooth="yes"/>
      <point x="230" y="18"/>
      <point x="259" y="-13"/>
      <point x="296" y="-13" type="curve" smooth="yes"/>
      <point x="333" y="-13"/>
      <point x="363" y="17"/>
      <point x="363" y="54" type="curve" smooth="yes"/>
    </contour>
    <contour>
      <point x="168" y="91"/>
      <point x="137" y="120"/>
      <point x="101" y="120" type="curve" smooth="yes"/>
      <point x="65" y="120"/>
      <point x="35" y="90"/>
      <point x="35" y="54" type="curve" smooth="yes"/>
      <point x="35" y="18"/>
      <point x="64" y="-13"/>
      <point x="101" y="-13" type="curve" smooth="yes"/>
      <point x="138" y="-13"/>
      <point x="168" y="17"/>
      <point x="168" y="54" type="curve" smooth="yes"/>
    </contour>
  </outline>
</glyph>
<glyph name="perthousand" format="1">
  <advance width="1052"/>
  <unicode hex="2030"/>
  <outline>
    <contour>
      <point x="1008" y="304"/>
      <point x="967" y="384"/>
      <point x="877" y="384" type="curve" smooth="yes"/>
      <point x="754" y="384"/>
      <point x="691" y="260"/>
      <point x="691" y="154" type="curve" smooth="yes"/>
      <point x="691" y="73"/>
      <point x="737" y="-5"/>
      <point x="828" y="-5" type="curve" smooth="yes"/>
      <point x="941" y="-5"/>
      <point x="1008" y="130"/>
      <point x="1008" y="226" type="curve" smooth="yes"/>
    </contour>
    <contour>
      <point x="674" y="304"/>
      <point x="633" y="384"/>
      <point x="543" y="384" type="curve" smooth="yes"/>
      <point x="420" y="384"/>
      <point x="357" y="260"/>
      <point x="357" y="154" type="curve" smooth="yes"/>
      <point x="357" y="73"/>
      <point x="403" y="-5"/>
      <point x="494" y="-5" type="curve" smooth="yes"/>
      <point x="607" y="-5"/>
      <point x="674" y="130"/>
      <point x="674" y="226" type="curve" smooth="yes"/>
    </contour>
    <contour>
      <point x="608" y="709" type="line"/>
      <point x="275" y="709" type="line"/>
      <point x="263" y="709"/>
      <point x="225" y="711"/>
      <point x="223" y="711" type="curve" smooth="yes"/>
      <point x="105" y="711"/>
      <point x="45" y="584"/>
      <point x="45" y="481" type="curve" smooth="yes"/>
      <point x="45" y="400"/>
      <point x="91" y="322"/>
      <point x="182" y="322" type="curve" smooth="yes"/>
      <point x="295" y="322"/>
      <point x="361" y="458"/>
      <point x="361" y="553" type="curve" smooth="yes"/>
      <point x="361" y="587"/>
      <point x="353" y="623"/>
      <point x="334" y="653" type="curve"/>
      <point x="507" y="653" type="line"/>
      <point x="101" y="-13" type="line"/>
      <point x="169" y="-13" type="line"/>
    </contour>
    <contour>
      <point x="935" y="165"/>
      <point x="903" y="55"/>
      <point x="833" y="55" type="curve" smooth="yes"/>
      <point x="784" y="55"/>
      <point x="763" y="114"/>
      <point x="763" y="158" type="curve" smooth="yes"/>
      <point x="763" y="221"/>
      <point x="805" y="326"/>
      <point x="871" y="326" type="curve" smooth="yes"/>
      <point x="919" y="326"/>
      <point x="935" y="267"/>
      <point x="935" y="224" type="curve" smooth="yes"/>
    </contour>
    <contour>
      <point x="288" y="494"/>
      <point x="257" y="382"/>
      <point x="187" y="382" type="curve" smooth="yes"/>
      <point x="138" y="382"/>
      <point x="117" y="440"/>
      <point x="117" y="485" type="curve" smooth="yes"/>
      <point x="117" y="550"/>
      <point x="159" y="653"/>
      <point x="225" y="653" type="curve" smooth="yes"/>
      <point x="272" y="653"/>
      <point x="288" y="594"/>
      <point x="288" y="552" type="curve" smooth="yes"/>
    </contour>
    <contour>
      <point x="601" y="165"/>
      <point x="569" y="55"/>
      <point x="499" y="55" type="curve" smooth="yes"/>
      <point x="450" y="55"/>
      <point x="429" y="114"/>
      <point x="429" y="158" type="curve" smooth="yes"/>
      <point x="429" y="221"/>
      <point x="471" y="326"/>
      <point x="537" y="326" type="curve" smooth="yes"/>
      <point x="585" y="326"/>
      <point x="601" y="267"/>
      <point x="601" y="224" type="curve" smooth="yes"/>
    </contour>
  </outline>
</glyph>
<glyph name="guilsinglleft" format="1">
  <advance width="304"/>
  <unicode hex="2039"/>
  <outline>
    <contour>
      <point x="264" y="178" type="line"/>
      <point x="146" y="329" type="line"/>
      <point x="262" y="479" type="line"/>
      <point x="201" y="490" type="line"/>
      <point x="56" y="329" type="line"/>
      <point x="205" y="169" type="line"/>
    </contour>
  </outline>
</glyph>
<glyph name="fraction" format="1">
  <advance width="241"/>
  <unicode hex="2044"/>
  <outline>
    <contour>
      <point x="-40" y="-22" type="line"/>
      <point x="356" y="753" type="line"/>
      <point x="297" y="753" type="line"/>
      <point x="-99" y="-22" type="line"/>
    </contour>
  </outline>
</glyph>
<glyph name="Euro" format="1">
  <advance width="480"/>
  <unicode hex="20AC"/>
  <outline>
    <contour>
      <point x="492" y="453" type="line"/>
      <point x="456" y="486"/>
      <point x="405" y="504"/>
      <point x="362" y="504" type="curve" smooth="yes"/>
      <point x="247" y="504"/>
      <point x="158" y="429"/>
      <point x="120" y="325" type="curve"/>
      <point x="45" y="325" type="line"/>
      <point x="38" y="279" type="line"/>
      <point x="107" y="279" type="line"/>
      <point x="103" y="258"/>
      <point x="100" y="238"/>
      <point x="98" y="217" type="curve"/>
      <point x="30" y="217" type="line"/>
      <point x="23" y="170" type="line"/>
      <point x="98" y="170" type="line"/>
      <point x="107" y="68"/>
      <point x="170" y="-13"/>
      <point x="281" y="-13" type="curve" smooth="yes"/>
      <point x="346" y="-13"/>
      <point x="384" y="3"/>
      <point x="442" y="36" type="curve"/>
      <point x="414" y="100" type="line"/>
      <point x="371" y="70"/>
      <point x="341" y="56"/>
      <point x="294" y="56" type="curve" smooth="yes"/>
      <point x="233" y="56"/>
      <point x="195" y="114"/>
      <point x="187" y="170" type="curve"/>
      <point x="380" y="170" type="line"/>
      <point x="387" y="217" type="line"/>
      <point x="184" y="217" type="line"/>
      <point x="185" y="238"/>
      <point x="187" y="258"/>
      <point x="191" y="279" type="curve"/>
      <point x="394" y="279" type="line"/>
      <point x="401" y="325" type="line"/>
      <point x="205" y="325" type="line"/>
      <point x="228" y="381"/>
      <point x="280" y="440"/>
      <point x="342" y="440" type="curve" smooth="yes"/>
      <point x="386" y="440"/>
      <point x="407" y="430"/>
      <point x="443" y="396" type="curve"/>
    </contour>
  </outline>
</glyph>
<glyph name="trademark" format="1">
  <advance width="580"/>
  <unicode hex="2122"/>
  <outline>
    <contour>
      <point x="535" y="724" type="line"/>
      <point x="471" y="724" type="line"/>
      <point x="396" y="579" type="line"/>
      <point x="361" y="724" type="line"/>
      <point x="295" y="724" type="line"/>
      <point x="264" y="499" type="line"/>
      <point x="306" y="499" type="line"/>
      <point x="326" y="646" type="line"/>
      <point x="327" y="649"/>
      <point x="327" y="651"/>
      <point x="327" y="654" type="curve"/>
      <point x="340" y="603"/>
      <point x="352" y="553"/>
      <point x="366" y="499" type="curve"/>
      <point x="396" y="499" type="line"/>
      <point x="424" y="551"/>
      <point x="451" y="600"/>
      <point x="476" y="650" type="curve"/>
      <point x="475" y="645"/>
      <point x="474" y="641"/>
      <point x="474" y="636" type="curve"/>
      <point x="455" y="499" type="line"/>
      <point x="504" y="499" type="line"/>
    </contour>
    <contour>
      <point x="273" y="724" type="line"/>
      <point x="80" y="724" type="line"/>
      <point x="75" y="687" type="line"/>
      <point x="146" y="687" type="line"/>
      <point x="120" y="500" type="line"/>
      <point x="170" y="500" type="line"/>
      <point x="196" y="687" type="line"/>
      <point x="268" y="687" type="line"/>
    </contour>
  </outline>
</glyph>
<glyph name="Omega" format="1">
  <advance width="727"/>
  <unicode hex="2126"/>
  <outline>
    <contour>
      <point x="644" y="0" type="line"/>
      <point x="654" y="69" type="line"/>
      <point x="585" y="69" type="line"/>
      <point x="520" y="64" type="line"/>
      <point x="623" y="135"/>
      <point x="687" y="290"/>
      <point x="687" y="435" type="curve" smooth="yes"/>
      <point x="687" y="605"/>
      <point x="603" y="735"/>
      <point x="423" y="735" type="curve" smooth="yes"/>
      <point x="201" y="735"/>
      <point x="59" y="529"/>
      <point x="59" y="297" type="curve" smooth="yes"/>
      <point x="59" y="200"/>
      <point x="90" y="111"/>
      <point x="147" y="64" type="curve"/>
      <point x="83" y="69" type="line"/>
      <point x="14" y="69" type="line"/>
      <point x="4" y="0" type="line"/>
      <point x="251" y="0" type="line"/>
      <point x="257" y="53" type="line"/>
      <point x="179" y="86"/>
      <point x="150" y="177"/>
      <point x="150" y="274" type="curve" smooth="yes"/>
      <point x="150" y="429"/>
      <point x="224" y="666"/>
      <point x="413" y="666" type="curve" smooth="yes"/>
      <point x="547" y="666"/>
      <point x="591" y="547"/>
      <point x="591" y="423" type="curve" smooth="yes"/>
      <point x="591" y="288"/>
      <point x="539" y="104"/>
      <point x="404" y="53" type="curve"/>
      <point x="397" y="0" type="line"/>
    </contour>
  </outline>
</glyph>
<glyph name="Delta" format="1">
  <advance width="631"/>
  <unicode hex="2206"/>
  <outline>
    <contour>
      <point x="550" y="0" type="line"/>
      <point x="557" y="53" type="line"/>
      <point x="505" y="277"/>
      <point x="452" y="500"/>
      <point x="398" y="723" type="curve"/>
      <point x="323" y="723" type="line"/>
      <point x="211" y="500"/>
      <point x="98" y="277"/>
      <point x="-15" y="53" type="curve"/>
      <point x="-22" y="0" type="line"/>
    </contour>
    <contour>
      <point x="64" y="66" type="line"/>
      <point x="330" y="605" type="line"/>
      <point x="336" y="576"/>
      <point x="340" y="532"/>
      <point x="348" y="496" type="curve" smooth="yes"/>
      <point x="378" y="363"/>
      <point x="417" y="202"/>
      <point x="449" y="66" type="curve"/>
    </contour>
  </outline>
</glyph>
<glyph name="radical" format="1">
  <advance width="605"/>
  <unicode hex="221A"/>
  <outline>
    <contour>
      <point x="291" y="-230" type="line"/>
      <point x="647" y="948" type="line"/>
      <point x="575" y="948" type="line"/>
      <point x="255" y="-112" type="line"/>
      <point x="117" y="303" type="line"/>
      <point x="-46" y="245" type="line"/>
      <point x="-26" y="183" type="line"/>
      <point x="60" y="213" type="line"/>
      <point x="208" y="-230" type="line"/>
    </contour>
  </outline>
</glyph>
<glyph name="integral" format="1">
  <advance width="256"/>
  <unicode hex="222B"/>
  <outline>
    <contour>
      <point x="-7" y="-226" type="line"/>
      <point x="116" y="-226"/>
      <point x="175" y="-156"/>
      <point x="175" y="-36" type="curve"/>
      <point x="175" y="563" type="line" smooth="yes"/>
      <point x="175" y="616"/>
      <point x="200" y="676"/>
      <point x="268" y="676" type="curve"/>
      <point x="268" y="734" type="line"/>
      <point x="145" y="734"/>
      <point x="92" y="662"/>
      <point x="92" y="544" type="curve"/>
      <point x="92" y="-56" type="line" smooth="yes"/>
      <point x="92" y="-110"/>
      <point x="62" y="-169"/>
      <point x="-7" y="-169" type="curve"/>
    </contour>
  </outline>
</glyph>
<glyph name="lessequal" format="1">
  <advance width="630"/>
  <unicode hex="2264"/>
  <outline>
    <contour>
      <point x="566" y="76" type="line"/>
      <point x="566" y="151" type="line"/>
      <point x="164" y="286" type="line"/>
      <point x="566" y="421" type="line"/>
      <point x="566" y="497" type="line"/>
      <point x="68" y="324" type="line"/>
      <point x="68" y="250" type="line"/>
    </contour>
    <contour>
      <point x="566" y="0" type="line"/>
      <point x="566" y="69" type="line"/>
      <point x="68" y="69" type="line"/>
      <point x="68" y="0" type="line"/>
    </contour>
  </outline>
</glyph>
<glyph name="greaterequal" format="1">
  <advance width="630"/>
  <unicode hex="2265"/>
  <outline>
    <contour>
      <point x="567" y="250" type="line"/>
      <point x="567" y="324" type="line"/>
      <point x="69" y="497" type="line"/>
      <point x="69" y="421" type="line"/>
      <point x="471" y="286" type="line"/>
      <point x="69" y="151" type="line"/>
      <point x="69" y="76" type="line"/>
    </contour>
    <contour>
      <point x="567" y="0" type="line"/>
      <point x="567" y="69" type="line"/>
      <point x="69" y="69" type="line"/>
      <point x="69" y="0" type="line"/>
    </contour>
  </outline>
</glyph>
<glyph name="uniFB01" format="1">
  <advance width="500"/>
  <unicode hex="FB01"/>
  <outline>
    <contour>
      <point x="491" y="658" type="line"/>
      <point x="476" y="733"/>
      <point x="416" y="771"/>
      <point x="339" y="771" type="curve" smooth="yes"/>
      <point x="182" y="771"/>
      <point x="143" y="653"/>
      <point x="119" y="490" type="curve"/>
      <point x="47" y="490" type="line"/>
      <point x="38" y="427" type="line"/>
      <point x="109" y="427" type="line"/>
      <point x="44" y="-52" type="line" smooth="yes"/>
      <point x="33" y="-136"/>
      <point x="0" y="-166"/>
      <point x="-45" y="-166" type="curve" smooth="yes"/>
      <point x="-79" y="-166"/>
      <point x="-88" y="-160"/>
      <point x="-115" y="-142" type="curve"/>
      <point x="-155" y="-199" type="line"/>
      <point x="-127" y="-217"/>
      <point x="-98" y="-230"/>
      <point x="-43" y="-230" type="curve" smooth="yes"/>
      <point x="47" y="-230"/>
      <point x="108" y="-168"/>
      <point x="122" y="-62" type="curve" smooth="yes"/>
      <point x="189" y="427" type="line"/>
      <point x="372" y="427" type="line"/>
      <point x="315" y="0" type="line"/>
      <point x="404" y="0" type="line"/>
      <point x="404" y="62" type="line"/>
      <point x="460" y="490" type="line"/>
      <point x="199" y="490" type="line"/>
      <point x="200" y="501"/>
      <point x="202" y="513"/>
      <point x="202" y="513" type="curve"/>
      <point x="226" y="674"/>
      <point x="281" y="707"/>
      <point x="336" y="707" type="curve" smooth="yes"/>
      <point x="379" y="707"/>
      <point x="409" y="682"/>
      <point x="414" y="635" type="curve"/>
    </contour>
  </outline>
</glyph>
<glyph name="uniFB02" format="1">
  <advance width="519"/>
  <unicode hex="FB02"/>
  <outline>
    <contour>
      <point x="514" y="766" type="line"/>
      <point x="445" y="740" type="line"/>
      <point x="436" y="747"/>
      <point x="399" y="772"/>
      <point x="341" y="772" type="curve" smooth="yes"/>
      <point x="172" y="772"/>
      <point x="137" y="627"/>
      <point x="119" y="490" type="curve"/>
      <point x="47" y="490" type="line"/>
      <point x="38" y="427" type="line"/>
      <point x="109" y="427" type="line"/>
      <point x="45" y="-52" type="line" smooth="yes"/>
      <point x="34" y="-136"/>
      <point x="0" y="-166"/>
      <point x="-44" y="-166" type="curve" smooth="yes"/>
      <point x="-78" y="-166"/>
      <point x="-88" y="-160"/>
      <point x="-114" y="-141" type="curve"/>
      <point x="-154" y="-199" type="line"/>
      <point x="-126" y="-217"/>
      <point x="-97" y="-230"/>
      <point x="-42" y="-230" type="curve" smooth="yes"/>
      <point x="48" y="-230"/>
      <point x="107" y="-177"/>
      <point x="123" y="-62" type="curve" smooth="yes"/>
      <point x="190" y="427" type="line"/>
      <point x="302" y="427" type="line"/>
      <point x="311" y="490" type="line"/>
      <point x="199" y="490" type="line"/>
      <point x="201" y="501"/>
      <point x="202" y="513"/>
      <point x="202" y="513" type="curve"/>
      <point x="225" y="685"/>
      <point x="288" y="709"/>
      <point x="345" y="709" type="curve" smooth="yes"/>
      <point x="388" y="709"/>
      <point x="418" y="681"/>
      <point x="418" y="646" type="curve"/>
      <point x="330" y="0" type="line"/>
      <point x="420" y="0" type="line"/>
      <point x="420" y="63" type="line"/>
    </contour>
  </outline>
</glyph>
